<?xml version="1.0" encoding="UTF-8"?>
<svg xmlns="http://www.w3.org/2000/svg" viewBox="0 0 794 800" width="794" height="800">
  <g transform="translate(0,800) scale(0.1,-0.1)" fill="#fefdfb" stroke="none"><path d="M3865 7988 c-82 -4 -179 -14 -215 -22 -56 -12 -74 -12 -130 0 -48 10
-81 11 -125 4 -93 -15 -215 -48 -249 -68 -25 -15 -38 -16 -66 -9 -52 14 -151
3 -285 -31 -148 -37 -219 -64 -276 -102 -25 -16 -76 -36 -119 -46 -41 -9 -97
-25 -125 -36 -79 -31 -195 -122 -224 -175 -10 -19 -20 -23 -64 -23 -103 0
-228 -38 -285 -87 -15 -13 -30 -23 -33 -23 -9 0 -87 -114 -99 -144 -5 -15 -12
-41 -15 -59 -11 -62 -15 -67 -50 -67 -30 0 -70 -8 -198 -41 -48 -12 -217 -140
-289 -218 -60 -65 -158 -205 -158 -226 0 -7 -16 -22 -35 -34 -20 -11 -41 -25
-48 -31 -6 -5 -34 -27 -62 -48 -54 -42 -207 -247 -255 -342 -15 -30 -37 -96
-49 -147 l-21 -92 20 -93 c11 -51 22 -99 25 -108 3 -10 -13 -27 -45 -48 -63
-44 -195 -181 -249 -260 -135 -200 -181 -468 -99 -588 30 -43 77 -73 145 -91
32 -8 59 -16 60 -17 2 -1 -10 -55 -32 -146 -44 -185 -66 -384 -72 -655 -6
-269 4 -444 38 -655 24 -154 28 -172 84 -396 l35 -141 -20 -87 c-11 -48 -20
-114 -20 -147 0 -71 53 -296 82 -347 40 -73 113 -162 152 -189 23 -16 50 -36
61 -46 20 -18 117 -67 133 -67 5 0 16 -37 26 -82 21 -98 53 -173 102 -240 32
-44 36 -56 35 -105 -1 -60 31 -209 56 -257 45 -86 114 -156 262 -263 59 -42
208 -78 283 -68 28 4 53 3 57 -2 15 -22 141 -103 191 -123 33 -13 70 -38 95
-64 70 -74 144 -116 245 -140 39 -9 80 -31 134 -69 57 -41 101 -63 161 -82 46
-14 86 -25 89 -25 3 0 33 -20 65 -45 33 -25 75 -52 93 -59 57 -24 209 -57 303
-66 93 -9 260 -50 306 -75 15 -8 75 -27 135 -41 91 -22 120 -25 186 -19 44 4
102 13 129 20 41 11 59 11 111 -1 34 -8 101 -14 148 -14 47 0 103 -4 125 -9
65 -17 115 -13 256 20 74 18 161 36 194 41 33 6 105 21 160 33 55 13 114 21
131 18 38 -6 217 36 321 76 43 17 102 47 132 66 30 20 68 42 85 49 17 7 58 34
90 60 65 50 72 53 101 32 11 -7 65 -23 120 -35 l100 -21 97 23 c99 25 175 65
231 126 48 51 116 161 133 215 12 38 24 57 42 65 60 28 152 105 202 170 30 40
65 84 78 99 12 15 28 39 35 54 6 15 25 32 40 38 53 18 153 98 197 157 54 72
54 71 115 113 28 19 63 48 78 65 49 53 147 203 153 234 4 19 23 44 54 70 58
49 114 131 130 191 6 25 22 54 34 65 23 20 126 158 126 169 0 3 13 26 29 52
19 29 39 86 56 154 l25 108 -23 110 c-14 64 -32 121 -44 135 -20 25 -20 26 -1
99 80 312 120 620 122 940 1 151 4 218 12 218 6 0 39 19 74 42 62 42 126 111
157 172 30 57 53 170 63 310 9 117 8 148 -5 192 -15 52 -61 108 -98 120 -11 4
-44 26 -73 49 -29 24 -68 49 -88 56 -22 8 -39 23 -47 41 -6 15 -28 46 -49 67
-21 21 -35 43 -30 47 12 14 50 180 50 218 0 19 -9 75 -21 124 -16 73 -29 101
-64 149 -24 32 -57 67 -73 77 -24 16 -32 33 -51 109 -18 74 -32 106 -78 174
-31 46 -75 101 -98 121 -31 28 -45 49 -54 85 -10 44 -25 73 -56 116 -5 8 -32
37 -60 65 -27 28 -90 95 -139 149 -49 54 -111 114 -137 133 -35 26 -51 46 -59
72 -13 49 -88 143 -144 181 -24 17 -48 31 -51 31 -4 0 -32 22 -63 48 -126 107
-229 174 -289 187 -25 5 -43 22 -78 70 -50 70 -90 106 -208 184 -100 67 -169
99 -280 127 -62 15 -93 29 -104 43 -19 28 -118 101 -136 101 -8 0 -31 11 -51
25 -54 36 -120 62 -219 85 -116 26 -190 25 -315 -5 -113 -27 -161 -49 -238
-106 l-52 -38 -17 72 c-33 137 -131 232 -276 267 -90 21 -89 21 -314 8z m246
-209 c72 -16 130 -73 147 -147 22 -96 11 -223 -25 -278 -12 -20 -10 -20 90
-33 56 -7 111 -14 122 -17 16 -4 31 9 67 60 86 119 201 194 347 224 76 15 81
15 167 -6 54 -13 110 -35 145 -57 31 -19 64 -35 72 -35 27 0 104 -86 111 -125
6 -30 11 -35 27 -31 10 4 28 8 38 11 33 10 163 -26 236 -64 153 -79 258 -176
290 -268 8 -21 19 -37 25 -35 21 5 120 -26 163 -51 23 -14 87 -62 142 -107 55
-44 115 -88 133 -97 51 -24 92 -84 105 -153 8 -44 16 -60 28 -60 30 0 125 -78
201 -167 42 -48 104 -114 137 -146 64 -61 85 -106 84 -179 0 -31 4 -37 25 -43
34 -8 121 -100 156 -165 38 -71 57 -151 45 -192 -5 -18 -8 -32 -6 -33 156 -85
215 -183 183 -303 -24 -90 -87 -160 -158 -177 -16 -4 -28 -10 -28 -13 0 -3 12
-43 27 -89 22 -66 31 -82 43 -77 8 4 39 9 67 12 60 5 98 -13 113 -54 12 -30
-8 -86 -37 -103 -16 -11 -16 -11 5 -6 13 4 50 6 84 6 90 0 142 -35 188 -125
33 -64 35 -75 35 -160 -1 -107 -20 -161 -81 -221 -48 -47 -109 -75 -180 -82
l-54 -6 8 -41 c15 -83 7 -613 -11 -751 -23 -174 -68 -393 -111 -541 l-35 -122
39 -41 c49 -51 75 -132 65 -198 -11 -76 -91 -220 -161 -289 -54 -54 -64 -70
-75 -119 -16 -70 -64 -137 -119 -162 -33 -15 -42 -25 -50 -58 -16 -61 -43
-114 -94 -182 -43 -60 -116 -123 -140 -123 -6 0 -17 -9 -23 -19 -25 -40 -133
-160 -164 -182 -18 -12 -60 -30 -93 -39 -60 -17 -60 -17 -72 -64 -14 -56 -27
-75 -105 -166 -70 -82 -119 -117 -185 -134 l-48 -12 -17 -67 c-38 -153 -123
-263 -225 -293 -92 -27 -166 -5 -227 66 l-34 40 -99 -47 c-55 -25 -121 -66
-148 -90 -26 -23 -54 -43 -60 -43 -7 0 -41 -19 -76 -42 -76 -49 -202 -101
-286 -119 -51 -10 -70 -10 -120 3 l-60 15 -33 -28 c-32 -27 -70 -39 -141 -45
-19 -2 -112 -22 -207 -45 l-172 -42 -63 17 c-73 19 -66 19 -143 11 -61 -7
-177 13 -198 34 -7 7 -19 6 -36 -4 -86 -44 -275 -45 -364 -2 -29 14 -93 35
-144 47 -52 13 -106 32 -124 46 -29 21 -39 23 -108 17 -82 -6 -207 14 -261 42
-16 8 -46 32 -66 51 -34 35 -62 46 -179 75 -56 14 -115 51 -158 98 -22 25 -46
41 -59 41 -48 1 -171 40 -210 66 -22 15 -52 46 -68 69 -21 31 -40 45 -81 59
-107 37 -206 110 -251 185 -12 20 -23 38 -24 40 -2 2 -17 -7 -34 -19 -52 -37
-121 -51 -181 -35 -55 15 -56 16 -148 94 -120 103 -146 159 -142 308 l2 91
-47 64 c-63 85 -92 151 -114 258 -25 120 -46 154 -108 169 -88 22 -185 93
-243 178 -36 52 -62 124 -79 221 -15 80 -6 145 32 233 l19 46 -34 119 c-78
267 -120 519 -138 815 -22 376 30 821 140 1184 28 94 29 101 13 118 -48 53
-124 58 -224 15 -66 -28 -83 -15 -74 60 24 201 203 434 416 541 54 27 123 55
154 62 31 7 56 15 56 19 0 12 -45 48 -70 55 -98 30 -171 148 -156 250 9 58 53
146 121 240 97 136 166 198 248 225 49 16 50 18 64 71 18 70 70 146 163 236
100 98 163 139 239 159 112 28 219 -10 287 -103 15 -21 30 -41 34 -45 3 -4 -3
59 -13 140 -21 166 -14 231 30 300 74 114 239 132 337 37 25 -23 42 -37 39
-29 -3 8 -2 39 1 68 17 132 188 268 342 270 40 1 58 8 90 32 56 45 109 69 210
98 160 45 200 49 287 26 l78 -19 50 36 c55 39 159 73 225 73 22 0 62 -6 89
-14 43 -13 54 -13 124 4 49 13 113 20 181 21 58 0 125 4 150 8 65 12 64 12
121 0zM2930 6492 c0 -5 17 -21 38 -35 51 -37 162 -148 162 -163 0 -6 6 -14
13 -17 8 -3 52 -57 100 -120 47 -62 94 -120 104 -128 20 -17 -31 78 -90 165
-90 133 -327 349 -327 298zM4801 6369 c-79 -55 -207 -176 -198 -186 4 -3 15 0 25 8 10 8 57 43
103 77 46 35 105 75 132 88 42 22 46 27 37 44 -6 11 -14 20 -19 20 -4 0 -40
-23 -80 -51zM4128 6376 c-112 -49 -238 -137 -342 -239 -50 -49 -100 -93 -111 -97
-16 -7 -17 -9 -3 -9 9 -1 37 16 61 37 76 63 122 97 130 94 4 -1 7 2 7 6 0 12
73 62 198 133 62 35 120 74 128 87 8 12 13 22 12 22 -2 0 -38 -15 -80 -34zM4329 6170 c41 -11 129 -49 198 -85 117 -62 162 -78 147 -54 -23 38
-192 119 -302 144 -93 22 -129 17 -43 -5zM4646 5807 c62 -57 101 -109 170 -229 38 -66 64 -86 64 -50 0 57
-142 232 -245 301 l-50 34 61 -56zM812 5521 c-129 -32 -216 -83 -317 -185 -84 -84 -160 -196 -179 -262
-6 -20 -5 -20 51 -8 32 6 77 11 101 9 57 -2 31 12 -35 21 -31 4 -53 11 -53 18
0 25 121 195 165 233 90 77 283 153 388 153 39 0 40 0 22 20 -22 24 -47 24
-143 1zM1501 5454 c-13 -30 -14 -34 -1 -34 14 0 123 -72 177 -118 27 -22 67
-64 90 -94 70 -88 113 -148 108 -148 -2 0 7 -12 20 -26 25 -27 107 -189 108
-211 0 -7 4 -13 8 -13 19 0 48 -243 44 -360 -5 -114 -16 -220 -46 -425 -53
-361 -58 -399 -62 -490 -5 -121 7 -178 17 -80 16 157 39 299 77 475 104 480
113 668 43 879 -76 229 -345 555 -540 654 -30 16 -32 15 -43 -9zM5035 5365 c-5 -2 -21 -6 -35 -9 -24 -5 -25 -8 -22 -64 4 -63 -14
-111 -64 -179 l-24 -32 29 10 c61 21 180 171 196 247 7 32 6 32 -32 31 -21 0
-42 -2 -48 -4zM3913 5268 c0 -58 -6 -93 -29 -156 -15 -45 -25 -85 -20 -89 19 -19
203 203 231 278 7 20 -9 25 -111 35 l-72 6 1 -74zM1580 5132 c75 -85 139 -171 140 -189 0 -7 4 -13 8 -13 5 0 18 -18
31 -40 36 -64 34 -47 -5 37 -49 108 -105 178 -199 248 -35 26 -32 21 25 -43zM1527 5044 c-3 -3 15 -34 39 -70 24 -36 47 -76 50 -90 3 -13 10 -24
14 -24 9 0 1 32 -19 84 -13 32 -76 107 -84 100zM3129 5036 c-2 -2 -41 -6 -87 -9 -46 -3 -86 -7 -89 -11 -4 -3 -19 -6
-34 -6 -19 0 -26 -5 -25 -17 1 -13 -18 -24 -74 -43 -142 -48 -235 -122 -289
-229 -17 -34 -30 -61 -27 -61 2 0 23 7 46 15 51 18 90 19 125 3 30 -14 34 -53
6 -68 -29 -15 -80 -127 -87 -191 -6 -56 10 -159 25 -159 4 0 15 15 23 34 26
53 78 107 101 104 30 -5 45 -33 29 -58 -7 -12 -9 -26 -5 -33 11 -19 84 -108
123 -150 35 -38 143 -127 154 -127 4 0 39 -20 80 -45 98 -59 205 -105 351
-150 66 -21 188 -66 270 -100 206 -85 237 -94 335 -97 94 -2 84 -6 249 85 46
26 91 56 99 68 58 84 102 106 102 53 0 -28 9 -29 102 -9 140 29 353 168 458
298 48 59 49 62 34 85 -12 18 -13 26 -3 38 29 35 78 -5 129 -106 l23 -45 13
50 c30 113 11 283 -42 372 -20 34 -23 47 -14 63 15 28 38 25 98 -14 l52 -35
-17 32 c-26 52 -107 169 -149 215 l-39 43 -45 -20 c-25 -11 -53 -21 -62 -21
-23 0 -23 -5 6 -43 36 -49 49 -102 44 -178 -7 -96 -44 -167 -132 -254 -103
-102 -224 -155 -354 -155 l-47 0 -38 -83 c-52 -113 -75 -137 -135 -137 -46 -1
-48 -2 -82 -56 -101 -160 -287 -206 -476 -118 -177 83 -316 362 -379 758 l-6
39 -45 -44 c-37 -36 -46 -41 -54 -29 -59 92 136 232 221 160 24 -20 24 -20 5
-35 -11 -8 -26 -15 -33 -15 -26 0 -12 -17 52 -64 163 -120 422 -223 605 -241
160 -16 344 67 404 183 l15 30 -37 7 c-103 19 -214 105 -235 182 -6 23 -18 45
-26 49 -9 3 -53 8 -97 11 -81 6 -82 5 -141 -31 -80 -49 -142 -67 -238 -68
-226 -4 -395 99 -494 299 -26 53 -35 62 -65 67 -44 8 -172 17 -177 12zM663 4903 c70 -96 116 -211 137 -338 5 -32 14 -63 20 -69 18 -18 11
105 -10 188 -34 127 -81 207 -146 245 l-36 22 35 -48zM4685 4900 c-73 -5 -78 -6 -57 -18 33 -19 131 -52 154 -52 22 0 72
50 61 60 -13 12 -73 16 -158 10zM7008 4744 c-33 -17 -50 -46 -42 -68 8 -22 43 -20 50 2 3 9 12 32 20
50 15 36 11 38 -28 16zM4960 4732 c0 -13 -7 -37 -16 -55 -44 -85 -111 -140 -195 -160 -32
-8 -49 -17 -49 -27 -1 -38 -46 -110 -103 -163 l-62 -59 100 4 c88 3 108 7 167
35 114 54 205 158 223 255 9 49 -10 126 -40 163 -24 29 -24 29 -25 7zM7370 4654 c-41 -15 -79 -31 -85 -37 -7 -7 -5 -8 6 -4 50 17 146 29
209 25 l72 -4 -27 23 c-35 30 -80 29 -175 -3zM6732 4627 c-21 -22 -30 -67 -14 -67 4 0 16 20 28 45 23 50 19 57
-14 22zM7250 4377 c-91 -57 -212 -134 -270 -172 -245 -160 -367 -239 -562
-364 -114 -73 -205 -137 -203 -142 6 -8 19 -1 127 69 32 20 120 77 195 125 76
49 202 130 280 180 78 51 240 155 360 232 120 76 220 143 221 147 2 4 10 8 18
8 8 0 14 5 14 10 0 6 -4 10 -8 10 -4 0 -82 -46 -172 -103zM6995 4317 c-55 -35 -190 -122 -300 -193 -110 -71 -273 -177 -362
-234 -90 -58 -163 -111 -163 -117 0 -12 88 41 345 209 55 36 152 98 215 138
197 125 390 252 390 256 0 13 -37 -4 -125 -59zM6617 4258 c-38 -24 -156 -99 -263 -168 -107 -69 -217 -139 -245
-156 -28 -18 -46 -34 -41 -38 12 -7 622 384 622 399 0 8 -2 7 -73 -37zM6775 4275 c-11 -7 -81 -52 -155 -101 -74 -48 -166 -108 -205 -133
-38 -25 -74 -48 -79 -50 -33 -14 -219 -145 -210 -148 6 -2 93 49 192 114 100
65 221 143 269 174 210 133 233 149 233 154 0 9 -25 4 -45 -10zM665 4190 c14 -27 24 -53 23 -57 -1 -5 3 -19 9 -33 6 -14 19 -44 28
-67 18 -42 46 -73 102 -112 19 -13 34 -17 38 -11 3 5 -4 14 -17 19 -45 17 -86
78 -108 160 -10 36 -83 151 -96 151 -3 0 7 -22 21 -50zM4375 4148 c0 -40 -3 -85 -8 -100 -7 -27 -6 -28 26 -28 29 0 36 5 57
48 14 26 30 61 36 77 11 29 10 31 -35 52 -73 36 -76 34 -76 -49zM4198 4127 c13 -45 30 -85 36 -89 6 -4 25 -8 42 -8 31 0 32 1 43 68
7 37 14 77 17 89 4 21 1 21 -80 22 l-84 1 26 -83zM2987 3913 c-10 -16 74 -75 126 -89 29 -8 54 -14 57 -14 3 0 -24 17
-60 38 -36 21 -77 46 -92 56 -14 9 -28 13 -31 9zM2782 3845 c-196 -89 -356 -266 -451 -497 -48 -119 -71 -229 -76
-363 -5 -134 0 -125 35 55 30 154 116 362 200 485 50 72 262 280 320 313 65
37 48 41 -28 7zM5920 3825 c0 -2 29 -20 65 -39 72 -41 98 -70 150 -171 38 -74 38
-54 0 31 -26 60 -85 128 -129 151 -31 16 -86 34 -86 28zM4642 3708 c-31 -16 -23 -30 29 -49 64 -24 78 -14 38 27 -36 38 -35
37 -67 22zM5514 3551 c-38 -25 -160 -104 -270 -174 -346 -223 -536 -345 -649
-419 -60 -39 -148 -96 -195 -126 -113 -73 -305 -198 -354 -231 -22 -14 -47
-25 -56 -23 -10 2 -28 -12 -43 -31 l-26 -34 42 1 c36 1 42 4 45 24 3 23 58 61
390 270 81 51 201 128 267 172 66 43 181 117 255 165 74 47 187 120 250 161
63 41 180 116 259 167 79 51 149 95 154 98 5 4 8 11 6 17 -2 5 -36 -11 -75
-37zM4724 3535 c-16 -42 31 -158 93 -226 80 -88 146 -106 71 -18 -56 64
-113 158 -129 214 -14 46 -25 56 -35 30zM5525 3470 c-22 -15 -182 -119 -355 -231 -173 -111 -351 -225 -395
-254 -84 -54 -225 -145 -310 -200 -27 -18 -102 -66 -165 -107 -63 -41 -150
-97 -193 -124 -103 -65 -159 -105 -153 -111 2 -2 13 1 25 9 16 10 23 10 33 0
6 -6 21 -12 31 -12 16 0 18 6 15 30 -4 29 1 33 186 152 105 68 233 150 283
183 51 33 125 81 165 106 187 118 269 171 413 264 84 55 224 145 309 200 86
55 158 106 160 113 8 19 -5 14 -49 -18zM4331 3363 c-64 -38 -132 -102 -342 -318 -67 -71 -139 -134 -172
-154 -71 -42 -174 -80 -247 -90 l-55 -9 67 -1 c37 0 91 4 120 10 116 25 302
144 380 244 176 225 226 280 309 337 45 32 4 18 -60 -19zM2926 3228 c-3 -18 -9 -45 -12 -60 -5 -21 -2 -28 8 -28 11 0 15 15
17 60 2 66 -3 78 -13 28zM5299 3222 c-14 -9 -79 -52 -145 -94 -306 -198 -468 -304 -579 -374
-359 -230 -595 -387 -591 -391 3 -3 20 4 39 16 34 21 35 21 40 1 6 -24 29 -26
47 -5 10 12 10 19 2 27 -23 23 -68 -10 483 345 171 109 359 230 419 268 196
124 300 195 309 210 10 18 9 18 -24 -3zM5516 3213 c-43 -11 -95 -56 -110 -94 -24 -59 -20 -64 21 -28 21 18
71 54 112 81 l74 48 -39 -1 c-22 -1 -48 -4 -58 -6zM5019 2938 c-129 -83 -310 -201 -404 -261 -93 -60 -217 -140 -275
-178 -58 -37 -156 -101 -217 -140 -62 -40 -113 -76 -113 -81 0 -5 20 3 45 18
43 25 45 25 45 6 0 -30 15 -35 41 -13 23 19 23 21 7 37 -18 19 -40 2 252 190
174 112 300 194 400 259 52 34 172 110 265 170 175 111 203 131 194 140 -3 2
-111 -63 -240 -147zM3005 3012 c95 -38 129 -57 169 -92 21 -19 40 -28 50 -24 14 5 11 11
-16 31 -51 38 -189 101 -233 107 -34 5 -30 2 30 -22zM3227 2811 c-16 -6 -17 -9 -5 -18 19 -17 156 -77 219 -98 30 -9 102
-42 162 -73 182 -94 269 -201 286 -354 6 -61 9 -68 16 -45 20 71 -37 218 -117
303 -91 97 -195 156 -384 218 -62 20 -120 46 -129 56 -20 22 -21 22 -48 11zM2473 2427 c-66 -88 -98 -196 -88 -290 4 -32 9 -56 11 -54 3 2 11 44
20 93 17 101 40 146 115 228 39 43 47 56 33 56 -11 0 -28 2 -39 5 -15 4 -28
-6 -52 -38z"/></g>
  <g transform="translate(0,800) scale(0.1,-0.1)" fill="#f9f2a0" stroke="none"><path d="M4036 7621 c-4 -5 -73 -10 -155 -10 -197 -2 -241 -15 -241 -72 0 -16
9 -37 22 -48 21 -20 21 -24 15 -262 -5 -228 -6 -242 -26 -260 -27 -26 -28 -80
-1 -104 18 -16 32 -17 144 -11 68 4 149 11 179 15 33 4 60 4 66 -2 13 -13 50
10 61 38 13 33 -3 164 -21 176 -33 21 -89 1 -89 -31 0 -20 -12 -26 -82 -35
-78 -12 -88 -4 -88 70 l0 64 48 6 c72 10 75 9 105 -5 25 -12 33 -12 55 1 25
14 27 20 30 88 2 54 -1 80 -13 97 -19 30 -59 32 -82 4 -14 -16 -30 -20 -80
-20 l-63 0 0 64 c0 75 1 76 101 76 65 0 70 -2 79 -26 9 -22 15 -25 47 -22 51
4 65 32 61 126 -2 51 -8 76 -18 82 -19 12 -47 13 -54 1zM3362 7585 c-64 -28 -92 -54 -92 -86 0 -23 7 -34 33 -49 l33 -20 19
-236 c16 -213 16 -237 2 -251 -14 -14 -18 -14 -43 6 -22 17 -36 20 -68 16 -35
-5 -48 -2 -86 24 -25 16 -56 41 -68 54 l-23 25 24 48 c38 75 57 151 57 226 0
80 -16 126 -56 157 -26 21 -37 23 -109 18 -116 -7 -236 -49 -292 -102 -24 -23
-43 -50 -43 -61 0 -30 27 -62 59 -69 l29 -6 41 -212 c23 -117 41 -221 41 -232
0 -11 -9 -28 -20 -38 -25 -21 -26 -68 -2 -90 25 -23 73 -21 135 5 73 30 99 55
95 92 -2 22 -11 35 -33 46 -16 8 -31 15 -31 15 -1 0 -5 15 -9 33 -4 18 -3 32
3 32 5 0 49 -27 98 -60 70 -47 97 -60 127 -60 41 0 101 22 128 46 16 14 19 14
38 -5 26 -26 75 -27 156 -3 45 14 63 25 72 44 16 31 0 84 -27 93 -21 7 -21 9
-51 278 l-21 198 21 20 c28 27 29 94 2 109 -28 14 -100 12 -139 -5z m-354
-277 c4 -49 -60 -178 -89 -178 -11 0 -50 173 -41 182 13 13 86 37 107 35 15
-2 21 -11 23 -39zM4859 7427 c-228 -64 -390 -379 -299 -583 23 -54 82 -119 137 -151
84 -49 211 -40 342 26 70 36 101 71 101 117 0 27 -6 36 -30 49 -40 21 -52 19
-133 -16 -85 -38 -147 -41 -210 -10 -63 31 -91 84 -84 162 14 160 177 271 314
214 46 -19 53 -30 53 -81 0 -91 73 -106 116 -22 22 43 44 118 44 154 0 35 -26
64 -57 64 -11 0 -28 9 -37 19 -46 50 -178 80 -257 58zM2434 7336 c-56 -26 -114 -88 -114 -123 0 -28 25 -53 55 -53 23 0 29
-15 99 -227 64 -197 72 -230 60 -244 -19 -21 -18 -64 2 -83 25 -26 74 -19 139
20 71 42 85 58 85 96 0 32 -33 70 -53 62 -14 -5 -24 18 -133 325 -40 112 -43
125 -29 141 32 35 6 110 -38 110 -12 0 -45 -11 -73 -24zM5420 7183 c-26 -10 -50 -36 -50 -54 0 -10 7 -34 16 -53 l17 -34 -98
-188 c-53 -104 -101 -194 -106 -200 -5 -7 -18 -10 -28 -7 -61 16 -85 -70 -33
-119 25 -24 137 -78 162 -78 18 0 50 39 50 62 0 12 -6 29 -14 37 -11 14 -11
21 1 51 l15 35 13 -26 c8 -14 23 -63 35 -109 12 -46 28 -96 36 -111 16 -32 84
-76 132 -85 27 -5 32 -11 32 -34 0 -36 27 -69 97 -116 80 -55 194 -140 219
-165 34 -33 63 -22 106 41 43 63 47 101 16 130 -24 22 -40 25 -69 10 -14 -8
-27 -7 -49 5 -34 18 -100 73 -100 85 0 4 16 28 35 54 l36 46 59 -40 c33 -23
60 -47 60 -54 0 -23 37 -48 67 -44 37 4 93 85 93 134 0 39 -36 70 -71 61 -16
-4 -35 6 -70 35 -53 45 -53 47 -1 115 29 39 39 36 114 -35 34 -32 48 -52 48
-72 0 -31 27 -60 57 -60 29 0 56 26 89 87 31 56 29 75 -11 97 -11 6 -77 56
-147 112 -70 55 -145 106 -165 112 -35 11 -40 10 -56 -10 -13 -16 -17 -31 -13
-53 5 -27 -5 -47 -77 -151 -153 -220 -188 -264 -208 -264 -15 0 -19 7 -19 30
0 29 -37 80 -58 80 -14 0 -33 50 -47 125 -14 72 -13 85 9 85 35 0 158 74 199
120 76 84 84 168 24 237 -78 88 -291 197 -347 176z m168 -243 c34 -20 52 -37
52 -49 0 -28 -53 -68 -112 -86 -62 -18 -78 -19 -78 -3 0 16 72 168 79 168 3 0
30 -14 59 -30zM1929 7091 c-22 -17 -24 -26 -22 -94 1 -41 12 -144 23 -228 35 -245
49 -402 37 -416 -5 -7 -22 -13 -37 -13 -16 0 -42 -12 -59 -26 -33 -27 -56 -28
-152 -3 l-36 9 -5 113 c-6 129 -29 204 -79 255 -66 67 -137 49 -263 -69 -123
-115 -167 -200 -131 -255 15 -23 22 -26 56 -21 l39 5 59 -81 c144 -200 201
-291 191 -301 -28 -28 -1 -106 36 -106 54 0 164 118 164 175 0 44 -24 68 -60
60 -22 -5 -32 -1 -44 17 -25 35 -6 41 94 28 110 -14 129 -10 183 39 23 21 56
42 73 45 17 4 61 32 97 63 58 48 67 61 67 89 0 34 -21 64 -46 64 -44 0 9 71
105 139 39 28 47 30 59 17 13 -12 13 -20 2 -45 -18 -44 7 -81 54 -81 52 0 176
100 176 142 0 38 -27 68 -62 68 -26 0 -55 24 -202 167 -94 92 -188 189 -209
215 -42 53 -69 61 -108 29z m231 -386 c0 -5 -16 -23 -35 -38 -25 -20 -37 -24
-40 -15 -4 13 -25 151 -25 165 0 11 99 -100 100 -112z m-629 -182 c16 -19 18
-163 2 -202 -9 -23 -10 -22 -55 30 -76 91 -77 94 -27 145 47 48 60 52 80 27zM6444 6356 c-10 -8 -18 -28 -18 -50 -2 -33 -17 -52 -154 -196 -145
-151 -154 -159 -194 -162 -50 -4 -76 -36 -64 -81 3 -14 58 -79 122 -144 64
-65 128 -133 141 -150 35 -46 71 -44 117 4 19 21 40 47 47 59 26 50 -26 118
-71 94 -20 -11 -28 -7 -72 37 -73 71 -74 73 -24 122 l43 42 51 -46 c29 -26 52
-54 52 -64 0 -30 30 -61 59 -61 21 0 40 12 70 45 39 42 46 59 41 95 -3 26 -32
50 -60 50 -24 0 -63 36 -94 87 -8 15 27 66 61 88 22 15 24 13 77 -51 46 -55
55 -73 53 -101 -3 -46 36 -79 75 -64 24 9 108 104 108 122 0 5 -26 35 -57 67
-32 31 -97 100 -145 153 -92 101 -133 128 -164 105zM998 6241 c-25 -16 -67 -57 -94 -92 -62 -80 -134 -207 -134 -235 0
-32 34 -68 64 -69 21 -1 66 -40 196 -170 163 -163 168 -168 159 -198 -20 -70
52 -104 103 -49 35 38 88 128 94 161 4 21 -1 35 -20 57 -25 29 -25 29 -56 12
-31 -17 -31 -17 -64 12 l-33 31 18 77 c36 148 18 347 -38 420 -33 43 -80 72
-119 72 -16 0 -51 -13 -76 -29z m118 -200 c7 -37 -9 -161 -25 -189 -7 -13 -19
-6 -67 41 l-59 56 27 53 c16 29 40 66 54 81 25 27 27 27 45 11 10 -9 22 -33
25 -53zM6860 5820 c-11 -11 -20 -31 -20 -45 0 -22 -26 -43 -192 -152 -162
-106 -194 -124 -210 -114 -40 25 -88 2 -88 -43 0 -56 105 -206 144 -206 31 0
56 30 56 66 0 23 11 37 48 67 l47 39 3 -79 c2 -43 -4 -135 -13 -206 -9 -70
-13 -142 -10 -160 10 -43 38 -98 64 -121 45 -41 107 13 84 74 -7 20 -7 46 2
96 7 38 19 130 25 204 7 74 15 138 19 142 8 8 121 -38 202 -84 108 -62 159
-60 188 9 26 63 -12 98 -190 172 -86 35 -169 78 -169 86 0 2 17 13 37 25 29
17 41 20 55 11 44 -27 88 2 88 58 0 40 -40 110 -86 151 -41 35 -57 37 -84 10zM6564 2979 c-30 -15 -44 -51 -44 -112 0 -52 32 -154 129 -409 23 -59
41 -114 41 -122 0 -12 -11 -14 -52 -10 -97 11 -294 53 -339 73 -61 28 -95 27
-124 -5 -20 -21 -25 -38 -25 -76 0 -27 6 -61 14 -76 8 -15 67 -74 133 -132 65
-57 157 -142 204 -188 l86 -83 -12 -36 c-14 -42 -10 -65 16 -89 41 -37 114 18
169 130 34 68 37 92 14 125 -14 19 -23 22 -53 17 -35 -5 -40 -2 -111 69 -56
56 -70 75 -55 75 42 0 190 -30 242 -50 108 -40 158 -18 158 69 0 37 -15 76
-72 196 -70 145 -103 225 -103 249 0 6 43 -32 95 -84 90 -90 95 -97 95 -137 0
-30 6 -49 20 -63 44 -44 83 -19 145 92 55 97 61 119 45 158 -15 37 -51 48 -85
26 -14 -9 -26 -12 -30 -6 -10 15 -361 346 -397 374 -40 30 -76 39 -104 25zM1064 2940 c-59 -24 -120 -79 -140 -126 -23 -55 -17 -147 17 -266 18
-65 29 -125 27 -150 -3 -40 -5 -43 -34 -46 -38 -4 -87 40 -115 103 -24 52 -24
71 1 102 24 31 25 54 5 93 -28 55 -77 48 -137 -18 -44 -49 -62 -109 -54 -175
22 -165 125 -273 271 -285 70 -5 119 14 174 70 60 59 76 109 75 228 -1 91 -5
117 -32 194 -35 98 -32 116 18 116 83 0 135 -117 95 -214 -19 -46 -11 -79 28
-112 42 -35 71 -26 134 44 56 60 65 92 38 128 -8 10 -15 38 -15 60 0 89 -61
196 -136 240 -62 36 -150 42 -220 14zM1361 2394 c-104 -38 -197 -129 -258 -251 -37 -74 -38 -80 -38 -183
0 -102 1 -109 37 -181 21 -41 57 -94 83 -119 l45 -45 -1 -125 c-1 -94 2 -133
13 -154 23 -44 137 -136 168 -136 66 0 80 81 28 152 -31 40 -33 48 -30 108 l4
66 67 -4 c189 -11 355 85 435 249 32 67 35 70 46 50 10 -20 2 -38 -69 -156
-121 -198 -173 -314 -179 -395 -9 -124 42 -190 191 -246 110 -41 147 -62 147
-83 0 -67 166 -133 214 -85 18 17 22 89 6 99 -17 10 -11 32 19 82 16 27 72
131 124 231 l95 184 43 3 c37 2 47 -2 65 -24 l22 -26 -98 -265 c-92 -250 -99
-265 -126 -272 -35 -9 -54 -33 -54 -69 0 -54 43 -85 170 -123 52 -15 56 -15
80 3 39 28 48 65 26 106 l-18 33 62 189 c101 303 117 343 145 343 16 0 25 -7
29 -26 4 -14 18 -36 32 -49 l25 -24 -55 -233 c-77 -318 -73 -308 -97 -308 -27
0 -69 -44 -69 -72 0 -62 61 -98 174 -105 70 -5 83 -3 98 13 31 35 33 70 4 99
-22 22 -25 32 -20 66 4 22 11 38 18 36 6 -2 37 -53 68 -113 68 -128 97 -158
167 -173 71 -15 84 -14 115 10 l26 20 0 -24 c0 -16 12 -35 32 -52 31 -27 36
-27 125 -23 103 6 127 18 138 68 8 34 -7 66 -35 75 -16 5 -20 15 -20 52 0 31
4 43 13 41 6 -2 45 -48 85 -101 92 -123 106 -132 200 -132 68 0 75 2 98 28 46
54 19 119 -56 133 -19 4 -44 14 -54 23 -21 18 -106 145 -106 159 0 4 12 19 26
33 49 45 123 160 145 226 27 81 24 184 -6 225 -45 60 -142 87 -310 88 -99 0
-146 -13 -189 -51 l-34 -29 -12 30 c-29 71 -93 107 -262 151 -80 20 -178 23
-218 5 -11 -4 -15 1 -16 19 -2 35 -19 52 -78 82 -42 21 -60 24 -123 21 -57 -3
-73 0 -73 10 0 44 -137 122 -215 122 -48 0 -74 -38 -57 -84 11 -30 8 -42 -34
-137 -74 -167 -159 -299 -194 -299 -26 0 -86 27 -147 66 -62 39 -66 60 -32
146 48 124 192 363 211 352 17 -11 49 8 64 38 29 57 -1 101 -109 159 -48 25
-67 30 -102 27 l-43 -5 -5 48 c-17 141 -158 315 -317 391 -80 39 -197 48 -269
22z m216 -209 c97 -49 183 -172 183 -264 0 -154 -218 -266 -368 -189 -90 46
-160 175 -150 277 6 64 57 134 123 172 67 38 140 40 212 4z m1609 -1010 c35
-23 30 -50 -21 -104 -46 -49 -128 -101 -141 -89 -6 7 9 114 27 182 l10 39 51
-6 c28 -4 61 -13 74 -22z m260 -53 c20 -10 20 -13 8 -164 -7 -84 -18 -208 -24
-275 l-13 -121 -38 -25 c-37 -25 -39 -25 -39 -6 0 35 -20 60 -65 80 -48 21
-69 50 -110 149 l-26 65 28 20 c106 77 191 187 214 276 12 48 14 49 29 31 8
-11 24 -24 36 -30z m308 -32 c35 -13 34 -45 -5 -103 -31 -48 -114 -127 -132
-127 -11 0 -4 210 7 229 9 14 96 14 130 1zM5853 2126 c-44 -38 -38 -95 44 -431 109 -445 104 -413 82 -449 -23
-38 -24 -84 -3 -114 33 -47 91 -20 168 80 45 57 56 79 56 108 0 39 -23 70 -52
70 -24 0 -30 28 -12 61 8 17 46 62 83 101 62 65 69 70 88 58 17 -11 19 -18 12
-37 -14 -38 -11 -68 9 -86 44 -40 101 -12 176 85 60 77 70 114 40 156 -16 23
-62 30 -80 12 -6 -6 -49 21 -124 81 -63 50 -155 118 -204 152 -50 33 -118 86
-153 119 -34 32 -71 58 -82 58 -11 0 -33 -11 -48 -24z m251 -360 l59 -54 -38
-46 c-21 -26 -40 -45 -42 -43 -3 4 -53 183 -53 193 0 12 21 -2 74 -50zM5463 1808 c-95 -88 -125 -155 -85 -191 10 -10 31 -17 46 -17 25 0
32 -12 107 -167 116 -242 169 -366 182 -428 11 -52 10 -56 -25 -130 -31 -65
-35 -81 -26 -105 18 -53 67 -51 116 5 63 70 104 247 84 350 -8 37 -58 149
-143 318 -94 188 -128 267 -124 281 26 81 8 126 -50 126 -28 0 -46 -9 -82 -42zM4622 1389 c-34 -17 -75 -46 -90 -65 l-29 -35 -6 30 c-7 35 -47 52
-72 31 -16 -13 -37 -18 -224 -51 -124 -22 -206 -51 -221 -80 -17 -31 -11 -60
19 -88 28 -26 29 -30 44 -211 32 -367 32 -385 8 -416 -28 -36 -27 -79 4 -109
30 -31 38 -31 176 4 197 49 259 62 269 56 16 -10 47 12 60 45 10 23 10 47 1
106 -6 41 -16 84 -21 95 -23 42 -120 5 -120 -45 0 -18 -10 -25 -53 -39 -30 -9
-73 -17 -96 -17 l-42 0 3 77 3 78 65 17 c49 14 71 16 91 8 32 -14 73 1 90 31
16 30 7 145 -15 187 -13 25 -23 32 -46 32 -28 0 -63 -24 -71 -49 -5 -14 -129
-35 -140 -24 -5 5 -11 41 -15 80 l-7 71 39 10 c22 6 66 13 100 17 58 6 61 5
72 -19 15 -34 55 -34 87 -1 20 19 25 34 25 76 0 49 1 51 18 37 9 -9 27 -19 39
-22 12 -4 24 -15 27 -24 20 -69 109 -548 110 -591 2 -62 27 -91 81 -91 46 0
212 68 274 113 28 20 58 37 66 37 8 0 23 10 35 22 54 58 -12 264 -78 241 -33
-12 -52 -37 -58 -75 -6 -33 -13 -42 -58 -67 -28 -16 -62 -31 -75 -33 -26 -3
-24 -12 -115 415 l-25 117 25 25 c30 30 32 77 4 105 -29 29 -85 26 -158 -11z"/></g>
  <g transform="translate(0,800) scale(0.1,-0.1)" fill="#efc550" stroke="none"><path d="M3706 3542 c19 -42 38 -84 43 -92 14 -26 102 -52 191 -56 72 -4 95
-1 150 19 38 14 64 29 62 36 -1 7 2 10 7 7 17 -11 41 6 41 30 0 23 -1 23 -79
17 -118 -9 -276 28 -410 96 l-40 21 35 -78zM3783 3324 c18 -63 30 -151 31 -231 1 -71 4 -89 13 -81 7 6 10 15 6
21 -3 6 -1 7 6 3 14 -9 106 78 97 92 -3 5 4 18 17 28 l22 19 -19 -22 c-11 -13
-17 -23 -14 -23 2 0 45 44 95 98 l91 99 -51 -14 c-87 -22 -196 -14 -281 22
-15 7 -17 4 -13 -11z"/></g>
  <g transform="translate(0,800) scale(0.1,-0.1)" fill="#d2ad8c" stroke="none"><path d="M2848 4183 c122 -157 322 -286 537 -347 131 -37 185 -57 330 -124
184 -85 260 -107 370 -107 78 0 97 4 146 28 32 15 77 46 100 68 l44 40 -109
-56 -110 -56 -90 6 c-83 6 -110 15 -301 90 -115 45 -255 96 -311 113 -118 37
-240 90 -344 151 -120 70 -144 88 -221 164 -51 50 -63 59 -41 30zM4567 3820 c-35 -6 -85 -40 -61 -40 12 0 137 40 143 46 6 6 -38 3
-82 -6zM707 3220 c6 -8 27 -53 46 -100 20 -47 43 -103 52 -124 l16 -39 21
20 20 20 -22 44 c-28 55 -102 160 -127 180 -16 12 -17 12 -6 -1zM2006 3080 c4 -14 14 -41 24 -60 9 -19 20 -47 24 -62 3 -14 24 -49
46 -76 22 -28 46 -66 55 -84 8 -18 13 -24 9 -13 -3 11 -8 42 -11 68 -5 40 -14
57 -52 96 -25 26 -59 72 -74 102 -15 30 -25 43 -21 29zM2000 2260 c17 -24 29 -29 83 -35 80 -8 190 -3 194 10 2 6 -31 11
-85 12 -55 0 -109 8 -149 21 l-63 20 20 -28z"/></g>
  <g transform="translate(0,800) scale(0.1,-0.1)" fill="#68c4ef" stroke="none"><path d="M3635 6409 c-84 -8 -299 -43 -338 -55 -9 -3 -15 -10 -11 -15 3 -5 10
-6 16 -3 7 4 8 2 4 -5 -10 -15 13 -43 27 -34 6 3 7 1 3 -5 -4 -7 6 -31 22 -54
16 -24 42 -68 57 -98 15 -30 29 -56 30 -58 2 -2 17 4 35 13 17 9 66 25 108 36
67 17 82 25 113 62 20 23 34 47 31 52 -3 6 -2 7 3 3 9 -9 75 40 72 54 -1 6 6
12 15 13 9 2 36 16 60 33 24 16 61 39 83 51 l40 21 -140 -1 c-77 -1 -180 -6
-230 -10zM4269 6348 c-12 -24 -28 -51 -37 -60 -14 -17 -11 -18 55 -18 38 0
105 -9 149 -20 l78 -20 37 42 c21 24 34 46 31 50 -4 3 -61 18 -127 32 -66 15
-130 29 -142 31 -18 4 -26 -2 -44 -37zM5075 6042 c-9 -113 -39 -238 -80 -327 l-32 -70 31 -58 c30 -57 32
-58 66 -53 19 4 96 9 171 13 l136 6 28 -37 c39 -51 46 -136 16 -181 -12 -16
-25 -37 -30 -45 -5 -8 -14 -52 -20 -97 -15 -120 -37 -187 -87 -258 l-43 -64
32 -23 c18 -13 36 -23 41 -23 5 0 10 -8 12 -18 3 -25 24 -48 37 -40 5 3 7 2 4
-4 -8 -13 41 -79 56 -75 7 2 9 1 5 -3 -4 -4 10 -36 30 -73 43 -78 55 -143 37
-189 -15 -36 -44 -56 -65 -43 -8 5 -18 6 -22 4 -4 -3 -5 1 -3 9 3 7 -3 21 -13
30 -19 17 -19 16 -6 -35 29 -108 13 -241 -42 -356 -37 -77 -49 -88 -87 -78
-18 4 -25 17 -36 66 -14 63 -25 80 -35 54 -4 -10 -2 -13 6 -8 7 4 8 3 4 -5 -4
-6 -11 -9 -16 -6 -9 5 -66 -66 -62 -78 1 -4 -2 -6 -7 -5 -15 5 -72 -43 -65
-54 4 -6 3 -8 -3 -5 -12 7 -55 -21 -49 -32 3 -4 0 -8 -7 -8 -7 0 -37 -16 -67
-35 -30 -19 -79 -47 -107 -62 -49 -24 -74 -46 -37 -32 8 3 13 2 9 -3 -3 -5 22
-29 55 -53 33 -23 62 -51 65 -60 9 -26 -12 -57 -45 -65 l-29 -8 33 -60 c19
-33 38 -59 44 -58 5 1 9 -5 8 -15 0 -9 5 -16 12 -14 8 1 11 -2 7 -7 -7 -13 59
-87 84 -94 21 -5 127 59 123 74 -1 6 2 8 7 4 12 -7 7 -10 248 148 101 66 181
123 178 127 -3 4 3 7 13 6 9 0 16 5 14 12 -1 8 2 11 8 7 13 -8 71 36 63 48 -3
6 -1 7 6 3 18 -12 62 30 87 83 12 27 20 52 18 55 -2 3 -1 4 2 2 3 -2 21 6 40
19 40 27 107 40 152 30 35 -7 86 19 75 39 -3 6 -3 8 2 4 11 -11 47 11 39 24
-4 6 -3 8 4 4 14 -8 195 108 185 119 -5 4 -2 5 4 1 8 -4 47 13 94 41 l80 48
-6 40 c-27 181 -110 458 -191 637 -80 178 -218 413 -236 402 -7 -4 -8 -2 -4 4
9 15 -34 73 -47 65 -6 -3 -7 -1 -3 5 9 15 -43 84 -57 75 -5 -3 -7 -1 -4 4 9
14 -32 65 -45 57 -7 -4 -8 -2 -4 4 8 14 -190 222 -208 219 -6 -1 -10 3 -9 10
5 24 -297 260 -317 248 -6 -4 -9 -1 -8 7 2 7 -5 12 -14 12 -10 -1 -16 2 -13 6
7 11 -64 52 -77 44 -6 -4 -8 -3 -5 3 8 13 -89 66 -105 57 -6 -4 -8 -3 -4 4 3
6 2 13 -3 16 -5 3 -12 -34 -16 -82zM2646 6098 c4 -7 3 -8 -4 -4 -31 19 -473 -288 -456 -316 4 -7 3 -8
-4 -4 -14 9 -94 -63 -85 -77 3 -5 2 -7 -4 -4 -13 8 -106 -87 -96 -98 5 -4 3
-5 -4 -1 -13 7 -68 -55 -68 -76 0 -7 -6 -13 -13 -13 -18 0 -43 -35 -35 -48 3
-6 1 -7 -5 -3 -6 3 -20 -8 -32 -24 -21 -30 -21 -32 -5 -50 10 -11 23 -17 29
-13 6 3 8 3 4 -2 -9 -10 49 -85 64 -82 6 1 12 -6 13 -15 5 -26 56 -89 68 -81
6 3 7 1 3 -5 -3 -6 13 -41 38 -79 64 -100 112 -201 143 -300 26 -83 27 -100
27 -273 0 -206 -6 -245 -95 -655 -80 -368 -95 -523 -65 -665 18 -81 53 -163
66 -155 5 3 7 0 4 -8 -3 -8 -1 -18 4 -21 5 -3 12 22 16 57 8 85 50 236 91 331
19 44 31 84 28 89 -3 6 -2 7 4 4 12 -7 46 49 38 63 -4 6 -1 9 7 8 7 -2 12 5
12 14 -1 10 2 16 6 13 4 -3 19 12 33 33 15 20 53 64 86 96 33 33 57 64 54 70
-3 6 -3 8 2 4 11 -10 96 53 88 65 -3 6 -2 7 4 4 5 -4 39 9 75 28 68 36 177 75
210 75 11 0 16 5 13 10 -4 6 -11 7 -17 4 -6 -4 -8 -3 -5 3 7 11 -70 91 -80 83
-3 -3 -7 3 -9 12 -1 9 -13 32 -27 50 -13 18 -32 48 -42 67 -15 31 -18 32 -27
17 -6 -10 -8 -35 -5 -56 6 -49 -7 -70 -44 -70 -63 0 -130 108 -145 233 -7 59
13 152 46 218 l21 40 -20 -11 c-12 -6 -21 -13 -21 -16 0 -3 6 -2 13 2 7 4 8 3
4 -2 -5 -5 -16 -9 -25 -9 -9 0 -17 -7 -17 -15 0 -8 -7 -15 -16 -15 -8 0 -23
-8 -33 -17 -19 -20 -25 -21 -43 -10 -40 26 -32 127 19 231 17 36 32 72 31 78
0 7 3 10 8 8 11 -7 30 30 21 40 -4 5 -2 5 4 2 10 -6 62 40 63 56 1 4 4 7 9 8
20 3 42 21 36 31 -4 6 -3 8 3 5 6 -4 31 5 55 19 23 14 35 23 25 20 -10 -3 -16
-2 -13 3 3 4 -4 25 -14 47 -27 51 -25 80 6 143 20 39 42 64 85 95 32 22 58 46
58 52 1 7 14 37 30 67 16 31 26 59 23 63 -4 4 -2 4 4 1 6 -4 21 4 33 17 19 20
20 25 7 35 -8 7 -21 9 -27 5 -7 -4 -9 -3 -5 4 7 11 -32 38 -47 34 -5 -1 -6 2
-3 6 7 12 -28 44 -39 35 -4 -5 -5 -3 -2 3 7 13 -21 56 -33 49 -4 -3 -7 1 -7 8
1 6 -12 39 -28 72 -38 80 -54 161 -55 278 0 61 -4 97 -11 97 -5 0 -7 -5 -3
-12zM6469 3744 c-1 -5 0 -13 1 -19 1 -5 -2 -7 -5 -3 -11 11 -47 -11 -39
-24 4 -7 3 -8 -5 -4 -15 9 -73 -32 -65 -46 4 -7 2 -8 -4 -4 -6 4 -29 -5 -51
-19 -38 -26 -39 -28 -28 -58 6 -18 12 -81 12 -142 0 -133 -20 -197 -94 -295
-27 -36 -47 -69 -44 -74 4 -5 1 -6 -4 -3 -13 8 -46 -27 -36 -38 5 -4 3 -5 -3
-2 -14 8 -49 -17 -49 -35 0 -7 -9 -13 -20 -13 -11 0 -19 -6 -17 -13 1 -8 -2
-11 -7 -8 -5 4 -21 1 -35 -5 -21 -10 -26 -19 -26 -51 0 -21 -7 -55 -17 -76 -9
-20 -15 -41 -14 -47 2 -5 -1 -7 -4 -3 -4 4 -22 -4 -40 -18 -50 -38 -205 -104
-245 -103 -19 0 -45 5 -58 13 -21 11 -32 6 -131 -58 -177 -118 -322 -186 -395
-186 -23 0 -27 -3 -16 -9 8 -6 19 -7 25 -4 5 4 7 3 3 -1 -3 -4 4 -28 18 -53
55 -105 5 -249 -120 -342 -25 -19 -42 -39 -39 -44 3 -6 1 -7 -6 -3 -15 9 -81
-31 -81 -49 0 -42 44 -231 66 -285 17 -42 24 -74 20 -93 -4 -20 0 -36 13 -53
l18 -23 119 60 c65 34 124 65 131 70 8 7 8 20 2 44 -11 40 2 101 32 153 11 19
17 38 13 43 -3 5 -2 8 3 7 13 -4 124 118 115 127 -4 5 -2 5 5 1 6 -3 28 5 48
18 50 34 124 49 182 35 26 -5 52 -14 58 -19 7 -6 9 4 6 32 -6 64 17 143 54
192 18 24 30 48 27 52 -4 4 -1 4 6 0 8 -5 21 -1 30 7 26 23 102 40 152 33 l46
-6 13 62 c13 67 56 144 91 166 11 7 18 18 14 24 -4 6 -3 8 4 4 27 -17 65 19
107 104 115 228 200 491 239 740 19 116 39 340 32 348 -4 3 -7 1 -7 -4zM4808 2460 c2 -22 8 -43 14 -46 5 -3 30 -1 54 6 l45 13 -42 23 c-22
13 -45 21 -50 18 -5 -3 -8 0 -7 7 2 6 -2 13 -7 15 -7 3 -9 -11 -7 -36zM2080 2109 c0 -10 108 -63 127 -62 7 0 11 -4 10 -11 -1 -6 6 -10 15
-10 10 1 16 -3 15 -10 -1 -6 6 -11 15 -11 9 0 20 -4 25 -9 5 -5 2 -6 -7 -1 -8
5 -4 -4 9 -18 31 -34 35 -34 17 1 -7 15 -19 52 -25 82 l-11 55 -95 1 c-52 1
-95 -2 -95 -7z"/></g>
  <g transform="translate(0,800) scale(0.1,-0.1)" fill="#a0a19f" stroke="none"><path d="M7303 4883 c-26 -5 -53 -39 -53 -66 0 -15 52 -77 65 -77 1 0 0 12 -3
27 -4 22 2 33 34 59 40 34 39 47 -1 56 -11 3 -30 3 -42 1zM7039 4739 c-17 -32 -29 -80 -19 -74 5 3 15 -3 22 -15 16 -26 32 -26
25 0 -3 13 4 31 20 50 20 25 23 33 13 45 -18 22 -47 18 -61 -6zM6795 4662 c-22 -3 -36 -20 -58 -74 l-14 -34 35 -1 c22 0 41 -8 50
-19 14 -18 14 -18 9 3 -2 12 4 34 14 50 35 53 20 84 -36 75zM354 3825 c0 -60 1 -84 3 -52 2 32 2 81 0 110 -2 29 -3 3 -3 -58z"/></g>
  <g transform="translate(0,800) scale(0.1,-0.1)" fill="#cb742c" stroke="none"><path d="M2871 6398 c-82 -173 -118 -374 -92 -510 29 -145 124 -274 250 -337
72 -37 80 -64 20 -69 -26 -2 -46 -13 -70 -38 -41 -43 -24 -44 62 -5 97 44 253
89 364 106 173 26 258 22 770 -35 128 -14 249 -21 370 -21 170 1 300 10 300
21 0 3 -28 53 -62 111 -48 82 -81 124 -144 183 -108 102 -152 130 -224 145
-66 14 -147 50 -152 67 -6 20 28 46 52 40 37 -9 285 -38 296 -34 16 5 -128 85
-212 117 -72 27 -112 36 -211 46 -41 4 -57 0 -113 -31 -106 -58 -130 -27 -41
53 30 26 73 70 97 97 l43 48 -45 -22 c-24 -13 -68 -38 -97 -56 -29 -19 -55
-34 -58 -34 -9 0 -218 -157 -238 -178 -10 -12 -68 -37 -137 -59 -95 -30 -118
-41 -113 -53 3 -8 11 -43 17 -77 9 -49 8 -66 -1 -75 -22 -22 -43 3 -82 95 -22
50 -55 106 -77 130 -21 23 -64 76 -94 117 -131 177 -290 340 -331 340 -4 0
-25 -37 -47 -82z m118 -93 c73 -37 173 -188 222 -335 40 -120 53 -283 25 -325
-9 -14 -23 -25 -30 -25 -17 0 -56 50 -89 116 -34 67 -53 83 -70 59 -20 -27
-50 -14 -72 30 -30 61 -29 241 3 309 l22 49 -30 47 c-30 47 -39 90 -20 90 6 0
24 -7 39 -15z m861 -520 c38 -19 60 -52 60 -89 0 -28 0 -28 -42 -20 -75 14
-102 9 -164 -29 -76 -47 -94 -48 -94 -4 0 74 94 154 183 156 15 1 41 -6 57
-14z m881 -134 c22 -21 39 -46 39 -55 0 -25 -29 -31 -60 -12 -40 23 -66 20
-138 -14 -35 -17 -68 -28 -73 -24 -19 11 -8 55 23 90 39 44 58 53 122 53 43 1
52 -3 87 -38zM4853 6346 c-24 -14 -77 -51 -119 -83 -108 -82 -108 -82 -103 -86 2
-2 25 -18 51 -35 62 -43 88 -77 88 -119 0 -34 -35 -81 -70 -96 -12 -4 -8 -11
15 -29 17 -12 60 -51 98 -87 46 -44 71 -61 78 -54 16 16 57 143 68 213 21 130
8 289 -30 374 -15 32 -23 32 -76 2zM870 5485 c-139 -23 -280 -94 -357 -180 -25 -27 -65 -81 -88 -120
l-43 -70 32 -8 c298 -75 402 -131 491 -265 23 -35 25 -45 15 -57 -7 -8 -17
-15 -22 -15 -5 0 -41 24 -81 54 -39 30 -73 53 -75 52 -1 -2 8 -25 22 -52 45
-90 67 -175 72 -271 3 -56 1 -93 -5 -93 -5 0 -12 8 -14 18 -3 9 -5 -53 -6
-140 -1 -158 13 -269 42 -339 16 -39 20 -99 6 -99 -18 0 -86 48 -112 79 -15
18 -38 68 -52 113 -14 44 -29 87 -34 95 -11 20 -23 -222 -16 -317 9 -112 33
-234 61 -307 52 -140 155 -270 270 -343 66 -42 71 -48 54 -81 -16 -28 -45 -23
-126 21 -40 22 -75 40 -78 40 -2 0 16 -30 40 -67 24 -36 45 -70 47 -76 1 -5
22 0 45 12 57 29 146 51 208 51 l52 0 -9 43 c-27 131 -33 436 -10 532 9 34 33
65 50 65 3 0 18 -49 32 -108 19 -78 46 -148 97 -252 l70 -145 1 58 c1 32 8 74
16 94 8 19 15 46 15 58 0 78 32 70 52 -13 16 -68 82 -216 118 -262 l19 -25
-10 42 c-5 24 -10 102 -10 175 -1 73 -8 168 -15 212 -40 230 4 502 112 692 54
95 69 113 85 97 9 -9 2 -41 -25 -125 -64 -202 -79 -299 -79 -508 -1 -129 5
-215 16 -284 16 -92 21 -104 73 -177 30 -44 56 -79 57 -79 1 0 2 30 2 66 1 46
5 68 15 74 21 13 30 1 56 -76 25 -70 40 -97 30 -54 -39 174 -40 376 -3 610 65
409 71 470 71 650 -1 208 -12 277 -65 387 -21 46 -39 85 -39 88 0 9 -99 148
-165 232 -66 85 -133 143 -230 202 -47 28 -59 32 -65 20 -74 -129 -183 -192
-294 -166 -74 17 -139 83 -155 158 -12 56 -43 100 -70 98 -9 -1 -50 -7 -91
-14z m751 -362 c66 -63 88 -92 126 -169 25 -50 44 -97 41 -104 -2 -6 -25 24
-52 67 -51 81 -102 147 -171 221 -44 48 -52 62 -36 62 6 0 47 -35 92 -77z
m-54 -105 c47 -49 93 -168 65 -168 -5 0 -19 24 -33 52 -13 29 -38 71 -56 94
-28 38 -32 54 -13 54 3 0 20 -15 37 -32zM3175 5319 c-122 -40 -284 -121 -321 -161 -33 -34 -54 -84 -54 -124
0 -23 3 -24 58 -20 31 2 102 9 156 16 56 7 148 10 211 8 l112 -5 -19 61 c-11
33 -22 105 -25 159 -4 61 -10 97 -17 96 -6 0 -51 -13 -101 -30zM4421 5178 c-4 -13 -12 -39 -16 -58 -17 -82 -121 -245 -202 -316
l-35 -31 73 -6 c41 -3 82 -8 91 -12 13 -5 19 0 23 22 19 87 86 169 159 193 37
12 37 12 19 34 -32 36 -51 70 -67 127 -20 65 -17 58 -27 65 -5 3 -13 -5 -18
-18zM5861 3794 c-12 -15 -21 -31 -21 -36 0 -16 61 -68 130 -112 66 -42
110 -93 110 -128 0 -16 -9 -12 -50 25 -60 54 -194 134 -238 143 -54 11 -98
-49 -81 -109 9 -33 25 -47 89 -81 54 -29 95 -71 104 -108 10 -43 -10 -42 -50
2 -42 46 -92 75 -153 89 -58 13 -76 -3 -76 -68 0 -41 5 -55 28 -79 41 -42 52
-93 31 -137 -9 -20 -28 -45 -42 -56 l-26 -20 23 -45 c13 -25 40 -59 59 -76 33
-28 40 -30 86 -24 128 15 298 150 367 291 30 62 34 78 34 150 -1 74 -4 87 -46
175 -25 52 -58 109 -73 127 -28 33 -143 103 -169 103 -9 0 -25 -12 -36 -26zM3143 2746 c-75 -79 -124 -195 -136 -326 -6 -56 -4 -55 27 23 11 26
21 37 35 37 12 0 21 -1 21 -2 1 -2 3 -34 6 -73 8 -115 20 -133 117 -169 67
-25 102 -58 163 -152 62 -96 94 -124 141 -124 30 0 36 5 49 37 31 74 -11 210
-88 285 -53 52 -56 73 -8 57 71 -25 163 -147 181 -241 10 -50 15 -58 34 -58
12 0 31 10 43 23 23 25 61 103 62 128 0 39 -34 123 -80 193 -53 81 -59 96 -36
96 43 0 183 -202 188 -271 2 -29 28 -29 28 0 0 55 -26 154 -52 204 -56 104
-203 206 -399 275 -46 16 -120 48 -164 71 l-80 40 -52 -53z"/></g>
  <g transform="translate(0,800) scale(0.1,-0.1)" fill="#e14d4e" stroke="none"><path d="M4220 7185 c0 -9 7 -29 15 -45 23 -45 38 -201 23 -258 -19 -77 -68
-137 -134 -162 -15 -6 -64 -13 -109 -15 -44 -1 -138 -6 -210 -10 -85 -5 -144
-4 -169 3 -32 9 -52 7 -115 -10 -54 -14 -92 -19 -133 -15 -36 3 -78 0 -111 -9
-28 -8 -71 -15 -95 -15 -33 -1 -56 -9 -97 -38 l-53 -37 55 -45 c31 -24 64 -50
74 -57 15 -11 35 -9 131 12 210 47 337 60 578 60 292 1 516 -28 755 -98 l80
-23 47 36 48 35 -79 21 c-168 45 -292 172 -333 344 -23 96 -23 136 1 236 11
44 17 82 15 84 -6 6 -101 19 -146 20 -28 1 -38 -3 -38 -14zM2758 6489 c-42 -26 -89 -45 -128 -52 -47 -9 -72 -21 -113 -55 -51
-42 -125 -72 -178 -72 -21 0 -30 -7 -40 -32 -7 -18 -31 -50 -54 -72 -54 -53
-154 -126 -172 -126 -8 0 -34 -16 -57 -35 -23 -19 -59 -41 -79 -50 -25 -10
-37 -22 -37 -35 0 -28 -111 -170 -161 -206 -52 -37 -128 -58 -179 -49 l-36 6
15 -64 c15 -62 17 -65 76 -100 33 -21 69 -44 80 -52 20 -14 25 -10 95 75 130
159 336 350 517 478 86 61 278 177 348 211 48 23 52 27 111 147 34 68 61 124
60 124 0 0 -31 -18 -68 -41zM5026 6369 c13 -32 24 -64 24 -71 0 -7 48 -37 106 -67 133 -67 323
-194 456 -304 118 -98 305 -286 398 -401 255 -316 472 -774 540 -1138 l12 -68
47 52 c25 28 73 69 105 90 56 36 57 38 29 38 -18 0 -41 10 -57 25 -37 34 -36
83 4 129 l30 34 -50 12 c-119 29 -218 199 -209 357 3 46 2 48 -28 54 -16 3
-47 19 -67 34 -44 34 -143 180 -158 232 -12 44 -61 104 -209 258 -59 62 -114
129 -124 152 -22 51 -91 110 -303 261 -33 24 -73 61 -88 83 -15 21 -43 49 -63
61 -20 13 -54 39 -76 58 -26 24 -60 42 -100 53 -86 23 -143 49 -196 90 l-47
35 24 -59zM3045 6038 c-4 -26 -6 -85 -4 -132 4 -76 7 -88 27 -102 12 -8 36 -42
52 -74 39 -77 51 -84 44 -23 -10 86 -56 263 -67 256 -6 -3 -7 -1 -4 4 10 16
-13 74 -26 66 -6 -3 -7 -1 -3 5 4 7 3 20 -3 29 -7 14 -11 8 -16 -29zM6941 5056 c-6 -50 -9 -105 -5 -122 10 -53 -20 -136 -64 -176 l-38
-35 28 -16 c15 -9 33 -28 40 -42 12 -26 11 -31 -17 -98 -7 -16 0 -15 51 8 62
28 92 48 56 38 -27 -7 -82 46 -82 79 0 81 136 158 211 118 10 -6 19 -9 19 -7
0 7 -78 234 -94 272 -12 30 -26 44 -55 56 l-38 16 -12 -91zM612 4760 c-39 -119 -89 -375 -114 -580 -14 -119 -17 -555 -5 -673 8
-68 11 -77 26 -72 11 3 36 -9 67 -33 49 -39 144 -95 144 -86 0 3 -11 20 -24
37 -41 54 -105 198 -127 287 -25 101 -38 244 -33 358 2 45 6 126 8 180 3 53 0
122 -6 152 -9 50 -8 56 12 72 36 29 72 3 141 -102 16 -24 17 -21 13 60 -10
210 -22 277 -67 380 l-24 54 -11 -34zM3646 4162 c-7 -12 75 -172 113 -220 67 -86 169 -132 289 -132 l65 0
-7 38 c-3 20 -10 53 -16 73 -23 81 -174 203 -154 124 9 -36 -22 -46 -43 -14
-38 55 -109 117 -148 128 -47 13 -92 14 -99 3zM7203 4077 c-90 -120 -138 -163 -204 -176 -64 -13 -148 -2 -206 27
l-38 20 -71 -51 -71 -51 -7 -139 c-9 -188 -47 -450 -81 -558 -5 -15 -1 -16 33
-7 59 15 138 -10 209 -65 32 -25 123 -106 203 -181 l145 -137 13 38 c53 151
114 449 137 669 15 141 19 540 7 642 l-7 53 -62 -84zM515 3325 c2 -11 14 -72 25 -135 11 -63 37 -176 57 -252 l37 -136 35
19 c20 10 46 19 58 19 12 0 24 4 27 9 7 10 -94 264 -141 353 -39 74 -105 157
-98 123zM6342 2647 c-36 -80 -38 -87 -20 -87 7 0 36 -10 65 -22 29 -12 55
-19 58 -16 5 5 -53 177 -64 190 -3 3 -21 -26 -39 -65zM5116 1395 c-158 -82 -160 -84 -173 -127 -12 -37 -12 -56 3 -140 17
-94 18 -96 38 -83 12 8 41 18 65 24 113 25 221 -48 261 -175 11 -37 23 -84 26
-105 4 -22 9 -39 13 -39 3 0 38 17 76 38 63 34 72 43 85 83 8 24 23 58 32 74
16 30 15 33 -13 105 -16 40 -65 147 -108 237 -61 128 -85 168 -106 179 -15 8
-30 14 -34 13 -3 -1 -78 -38 -165 -84z"/></g>
  <g transform="translate(0,800) scale(0.1,-0.1)" fill="#2d8252" stroke="none"><path d="M7430 4626 c0 -4 -13 -6 -29 -4 -18 3 -28 0 -24 -5 4 -6 -8 -8 -31
-4 -22 3 -34 2 -31 -4 4 -5 -2 -10 -12 -11 -10 -1 -27 -2 -38 -3 -11 -1 -26
-3 -33 -4 -7 0 -10 -6 -6 -13 5 -7 3 -8 -5 -4 -16 10 -182 -64 -174 -77 4 -6
1 -7 -6 -3 -15 10 -73 -13 -65 -25 3 -5 -3 -6 -12 -2 -13 5 -15 3 -9 -7 6 -9
4 -11 -5 -5 -16 10 -131 -45 -123 -58 3 -6 1 -7 -5 -3 -15 9 -75 -22 -67 -34
3 -6 0 -7 -8 -4 -8 3 -18 0 -23 -7 -5 -8 -3 -10 6 -4 8 5 11 4 6 -3 -4 -6 -12
-9 -19 -6 -7 2 -22 -4 -32 -16 -10 -11 -13 -20 -7 -20 6 0 12 6 14 12 3 7 7 2
10 -10 4 -12 1 -25 -4 -29 -7 -4 -8 -1 -4 8 4 8 0 5 -9 -6 -9 -11 -21 -19 -26
-17 -5 1 -9 -2 -9 -7 0 -5 11 -11 25 -13 14 -3 25 -1 25 4 0 5 4 7 9 4 5 -3
12 1 15 10 3 8 10 13 15 10 5 -3 12 1 15 10 4 9 9 14 12 11 8 -8 41 27 48 51
12 36 41 54 83 50 25 -3 38 -9 38 -18 1 -8 6 -14 11 -13 6 1 8 -11 6 -30 -5
-30 -4 -30 12 -14 10 9 21 15 26 12 4 -3 11 2 14 11 3 8 10 13 15 10 5 -3 12
1 15 10 3 8 10 13 15 10 5 -3 12 1 15 10 3 8 11 12 17 8 8 -5 8 -1 0 14 -29
55 1 111 62 116 21 2 41 -2 44 -8 13 -20 13 -76 1 -99 -7 -12 -12 -24 -11 -27
1 -3 -10 -6 -23 -6 -14 -1 -32 -10 -39 -20 -8 -11 -15 -15 -15 -10 0 6 -7 1
-15 -10 -8 -10 -15 -16 -15 -12 0 4 -12 -4 -27 -18 -14 -13 -28 -22 -30 -20
-3 2 -13 -4 -24 -15 -11 -11 -24 -17 -28 -14 -5 2 -12 -2 -15 -11 -3 -8 -10
-13 -15 -10 -5 3 -12 -1 -15 -10 -3 -8 -10 -12 -16 -9 -5 3 -10 2 -10 -3 0
-11 -41 -40 -62 -44 -7 -2 -18 -10 -25 -18 -7 -8 -13 -11 -13 -7 0 4 -6 2 -14
-5 -12 -11 -12 -15 1 -30 15 -17 17 -16 41 7 13 14 28 22 33 19 5 -3 9 -1 9 4
0 5 12 17 26 27 18 11 24 13 19 4 -5 -8 4 -1 18 14 15 16 32 25 39 21 7 -4 8
-3 4 4 -6 11 6 16 19 10 2 -2 11 6 19 17 9 11 16 16 16 11 0 -6 7 -1 15 10 8
10 15 15 15 10 0 -6 6 -2 13 8 7 9 19 18 27 19 8 2 25 11 38 22 12 11 25 18
27 15 2 -3 11 4 20 15 9 11 14 13 10 5 -4 -8 3 -4 15 10 12 14 18 18 14 10 -4
-8 5 -3 20 12 16 15 32 25 37 22 5 -3 9 0 9 6 0 6 4 9 9 6 5 -3 12 1 15 10 3
8 9 13 13 11 5 -2 16 4 25 14 15 16 15 18 0 25 -9 4 -19 7 -22 6 -11 -1 -9 62
2 82 7 11 11 25 10 29 -1 5 1 6 6 3 5 -3 23 -1 41 4 17 5 29 5 26 0 -2 -4 2
-13 11 -21 28 -23 35 -46 22 -74 -9 -21 -9 -28 1 -34 9 -6 5 -13 -13 -25 -14
-9 -26 -13 -26 -9 0 5 -5 0 -11 -10 -6 -9 -14 -15 -20 -12 -5 4 -9 2 -9 -4 0
-12 -60 -46 -73 -43 -5 1 -6 -2 -2 -8 3 -5 1 -10 -4 -10 -22 0 -26 -2 -34 -16
-5 -8 -12 -12 -17 -9 -4 3 -11 -2 -14 -11 -3 -8 -10 -12 -16 -9 -5 3 -10 1
-10 -5 0 -6 -5 -8 -12 -4 -7 4 -8 3 -4 -4 7 -11 -6 -17 -27 -13 -5 1 -6 -3 -2
-9 3 -5 1 -10 -4 -10 -22 0 -26 -2 -34 -16 -5 -8 -12 -12 -17 -9 -4 3 -11 -2
-14 -11 -3 -8 -10 -13 -15 -10 -5 3 -12 -1 -15 -10 -4 -9 -9 -14 -13 -11 -3 4
-11 0 -17 -8 -6 -7 -17 -15 -25 -17 -7 -2 -24 -13 -37 -26 -13 -13 -28 -21
-33 -18 -5 3 -12 -1 -15 -10 -3 -8 -10 -13 -15 -10 -5 3 -11 -1 -15 -9 -8 -21
28 -19 107 5 59 18 73 28 136 96 38 42 79 83 92 92 37 26 95 31 159 14 49 -13
65 -14 101 -3 110 33 169 167 123 281 -9 22 -20 37 -25 34 -5 -3 -9 -1 -9 4 0
5 -11 7 -25 4 -14 -2 -25 0 -25 5 0 6 -18 10 -40 9 -22 -1 -40 -5 -40 -10zM6820 4278 c0 -18 -54 -61 -64 -51 -3 3 -6 1 -6 -6 0 -7 -3 -10 -7
-8 -13 8 -32 -19 -23 -33 6 -9 12 -9 29 -1 11 7 21 8 21 4 0 -4 7 2 15 13 8
10 15 16 15 12 0 -4 12 4 26 17 15 14 32 22 38 18 6 -3 4 0 -4 8 -8 8 -21 20
-27 28 -11 13 -13 13 -13 -1zM4463 3413 c-13 -2 -23 -8 -23 -13 0 -12 -61 -45 -75 -41 -5 1 -7 -1
-3 -5 4 -4 -18 -27 -50 -51 -54 -42 -99 -83 -57 -53 15 12 14 8 -5 -16 -14
-17 -28 -29 -33 -27 -4 2 -6 1 -5 -4 5 -13 -28 -53 -37 -45 -5 4 -5 2 -2 -5 4
-6 -5 -21 -19 -32 -15 -12 -23 -21 -18 -21 5 0 0 -7 -10 -15 -11 -8 -16 -15
-12 -15 4 0 -5 -16 -20 -35 -14 -19 -31 -32 -37 -28 -5 3 -7 2 -4 -4 4 -6 -5
-21 -18 -33 -14 -13 -25 -20 -25 -15 0 5 -7 0 -15 -11 -8 -10 -15 -15 -15 -10
0 6 -7 1 -15 -10 -8 -10 -15 -15 -15 -11 0 4 -12 -5 -26 -20 -14 -15 -23 -21
-19 -13 4 8 -2 5 -12 -7 -10 -12 -25 -23 -33 -25 -8 -2 -21 -9 -28 -16 -8 -7
-19 -11 -26 -9 -6 2 -17 -3 -25 -10 -7 -8 -20 -12 -27 -9 -8 3 -14 0 -14 -5 0
-6 -9 -9 -20 -6 -11 3 -20 0 -20 -5 0 -6 -12 -8 -30 -4 -22 4 -29 2 -24 -6 5
-8 -6 -10 -37 -6 l-44 6 33 -14 c18 -8 38 -11 44 -8 6 4 8 3 5 -3 -8 -13 20
-26 35 -16 7 4 8 1 3 -7 -6 -10 -4 -12 9 -7 11 5 15 3 10 -5 -5 -8 -2 -9 9 -5
9 3 19 1 23 -5 5 -7 2 -8 -6 -3 -9 6 -11 4 -6 -4 5 -7 14 -10 22 -7 7 3 16 0
20 -6 5 -7 2 -8 -7 -3 -12 8 -12 6 0 -9 8 -9 20 -15 28 -12 8 3 11 1 8 -4 -8
-13 6 -13 60 1 25 6 42 15 39 20 -3 5 3 6 12 2 13 -5 15 -3 9 7 -5 9 -4 11 3
6 15 -9 52 11 49 27 -1 7 4 11 12 9 18 -4 53 29 47 44 -3 7 3 18 12 26 16 12
16 11 2 -7 -15 -20 -14 -20 8 -1 12 11 21 26 20 35 -2 9 2 16 7 16 20 1 36 17
31 31 -6 15 10 28 34 29 8 0 15 7 15 15 0 8 7 15 15 16 34 2 41 4 36 12 -2 4
23 4 57 0 96 -12 100 -14 103 -30 1 -9 6 -24 11 -33 9 -15 11 -14 33 3 l24 20
-19 43 c-14 31 -20 63 -19 114 2 95 7 134 18 127 5 -3 6 2 3 12 -5 11 -3 15 5
10 8 -5 9 -2 5 9 -4 10 -2 16 6 14 7 -1 11 6 11 15 -1 10 2 16 6 13 10 -6 33
22 26 33 -3 5 14 26 37 48 l42 39 -40 -45 -40 -45 38 35 c50 45 64 70 46 81
-14 9 -56 10 -96 2zM4497 2439 c-9 -6 -14 -15 -11 -21 4 -6 3 -8 -2 -5 -6 3 -16 2 -23
-2 -10 -7 -10 -14 2 -37 20 -39 63 -78 77 -69 6 4 9 1 8 -7 -2 -8 6 -13 19
-12 12 0 20 -3 18 -7 -8 -12 38 -19 136 -19 79 0 99 -3 111 -17 19 -22 29 -83
14 -80 -6 1 -10 -6 -9 -16 0 -10 -1 -16 -4 -13 -10 10 -44 -15 -37 -26 4 -6 3
-8 -4 -4 -14 9 -83 -25 -75 -37 4 -6 1 -7 -6 -3 -7 5 -20 1 -30 -8 -23 -21
-126 -59 -246 -91 -54 -14 -109 -33 -124 -41 l-26 -15 25 5 c14 2 79 14 145
26 191 34 278 57 269 72 -4 7 -3 8 5 4 14 -9 53 2 47 13 -3 4 5 7 17 7 12 -1
21 4 20 11 -2 8 4 10 14 6 10 -4 14 -2 10 4 -4 6 1 10 11 9 9 0 16 4 15 11 -2
7 3 10 10 7 18 -6 101 81 92 97 -5 7 -4 10 3 5 17 -10 35 66 23 97 -17 43 -39
48 -121 26 -93 -24 -146 -24 -212 1 -29 11 -57 20 -63 20 -20 2 -53 42 -48 58
4 10 2 13 -5 8 -7 -4 -10 -2 -7 6 3 8 0 21 -7 30 -10 13 -17 15 -31 7zM2542 2396 c-28 -24 -48 -47 -45 -50 3 -3 -2 -8 -11 -12 -9 -3 -13
-10 -11 -15 3 -4 -2 -16 -12 -26 -10 -10 -17 -27 -15 -37 2 -10 0 -16 -6 -12
-5 3 -7 -5 -4 -19 2 -14 0 -25 -6 -25 -7 0 -9 -14 -5 -35 3 -19 1 -35 -4 -35
-5 0 -7 -17 -5 -37 2 -29 1 -34 -7 -23 -14 20 -14 1 0 -38 6 -18 16 -29 22
-25 5 3 7 1 3 -5 -8 -13 14 -63 25 -56 5 3 6 -3 2 -12 -4 -11 -2 -15 4 -11 6
4 10 -1 9 -11 0 -9 4 -16 10 -15 7 1 11 -5 10 -15 0 -9 4 -16 11 -15 7 2 10
-3 7 -11 -3 -8 0 -17 7 -22 8 -5 10 -3 4 6 -5 8 -4 11 3 6 6 -4 9 -13 6 -21
-7 -16 31 -39 52 -31 10 4 12 2 8 -6 -5 -8 -2 -9 9 -5 10 4 16 2 14 -6 -1 -7
7 -12 18 -12 11 0 20 -7 20 -15 0 -8 8 -15 17 -15 9 0 20 -4 25 -9 5 -5 2 -6
-7 -1 -10 5 -12 5 -5 -2 14 -13 165 -44 178 -36 6 4 7 1 2 -7 -6 -10 -4 -12
11 -6 10 4 15 4 11 0 -10 -10 31 -37 43 -29 6 4 9 1 8 -7 -2 -7 5 -13 14 -13
9 0 20 -4 25 -9 5 -5 2 -6 -6 -1 -9 5 -12 4 -8 -2 4 -6 28 -14 54 -18 82 -11
284 -65 325 -86 21 -11 43 -17 49 -14 5 4 8 1 7 -6 -2 -8 7 -14 20 -15 12 -1
26 -5 30 -9 4 -5 -1 -5 -11 -2 -11 4 -16 3 -12 -4 6 -9 57 -4 78 8 4 2 -1 16
-12 31 -35 51 -58 107 -90 222 -64 225 -97 285 -195 352 -34 22 -81 57 -105
76 -38 31 -51 35 -110 38 -93 5 -110 8 -103 18 3 5 -2 6 -12 3 -11 -5 -15 -3
-10 5 5 8 2 9 -10 5 -10 -4 -15 -3 -11 3 7 11 -32 33 -45 25 -6 -4 -9 -1 -8 7
2 7 -5 12 -14 12 -10 -1 -16 3 -15 10 1 6 -7 11 -18 11 -11 0 -20 6 -20 13 0
14 -25 33 -36 26 -4 -2 -13 4 -20 14 -12 15 -12 16 1 7 9 -5 7 -2 -4 8 -10 10
-26 15 -33 13 -8 -3 -12 -2 -10 2 3 4 -3 22 -13 40 l-18 33 -50 -45z"/></g>
  <g transform="translate(0,800) scale(0.1,-0.1)" fill="#2a6955" stroke="none"><path d="M3823 6423 c37 -2 96 -2 130 0 34 2 4 3 -68 3 -71 0 -99 -1 -62 -3z"/></g>
  <g transform="translate(0,800) scale(0.1,-0.1)" fill="#8e3c23" stroke="none"><path d="M7284 3820 c0 -80 2 -112 3 -72 2 39 2 105 0 145 -1 39 -3 7 -3 -73zM1219 3729 c-32 -61 -33 -439 -1 -579 6 -24 13 -34 24 -32 9 1 19 -2
23 -7 3 -6 12 -8 19 -5 8 3 17 0 21 -5 3 -6 11 -9 16 -6 5 4 9 1 9 -5 0 -6 5
-8 10 -5 6 3 10 1 10 -4 0 -6 6 -11 14 -11 8 0 16 -7 20 -15 3 -8 9 -14 13
-13 10 2 93 -78 93 -91 0 -5 7 -12 16 -15 8 -3 12 -10 9 -16 -3 -5 -2 -10 3
-10 8 0 36 -53 37 -70 0 -3 4 -11 8 -17 5 -7 6 -17 2 -22 -3 -5 0 -13 6 -16 5
-4 8 -13 5 -21 -3 -7 -1 -16 5 -20 5 -3 7 -14 4 -24 -3 -10 -1 -21 5 -25 6 -3
8 -11 5 -16 -4 -5 -1 -9 5 -9 7 0 9 -8 5 -19 -3 -11 -1 -22 5 -26 5 -3 7 -17
4 -31 -7 -28 11 -55 32 -47 8 3 14 0 14 -7 0 -6 4 -9 9 -5 5 3 12 1 16 -5 4
-6 11 -8 16 -5 5 4 9 1 9 -5 0 -6 4 -9 8 -6 5 3 18 -3 29 -14 12 -10 23 -16
27 -13 3 3 8 -2 12 -11 3 -9 12 -16 20 -16 8 0 14 -5 14 -11 0 -8 4 -8 15 1 8
6 19 9 25 5 5 -3 10 -1 10 5 0 7 6 10 14 7 7 -3 19 0 25 6 6 6 11 7 11 3 0 -5
6 -3 14 3 12 10 18 8 30 -11 17 -26 11 -68 -10 -68 -8 0 -14 -5 -14 -11 0 -5
-4 -8 -9 -5 -5 3 -11 0 -14 -8 -7 -19 58 -75 108 -93 85 -30 266 -39 250 -13
-3 5 -1 11 5 15 6 4 8 10 5 15 -3 5 -1 11 4 15 6 3 8 12 4 20 -3 8 0 15 6 15
6 0 10 3 9 8 -4 12 24 72 34 72 5 0 6 5 3 10 -3 6 1 13 9 16 9 3 16 11 16 17
0 6 8 19 18 30 9 11 11 17 5 13 -7 -4 -13 -2 -13 4 0 6 -5 8 -10 5 -6 -3 -13
1 -16 9 -3 9 -10 14 -14 11 -18 -11 -142 139 -180 216 -21 43 -50 93 -65 111
-15 18 -33 46 -40 63 -53 125 -64 155 -67 190 -1 22 -11 58 -22 80 -10 22 -27
62 -37 90 -9 27 -22 51 -27 53 -14 4 -26 -79 -19 -124 7 -44 -1 -38 -60 42
-44 60 -48 64 -51 40 -2 -14 -6 -26 -8 -26 -10 0 -34 28 -34 39 0 6 -5 11 -11
11 -5 0 -7 5 -4 10 3 6 1 10 -4 10 -6 0 -11 7 -11 15 0 9 -7 27 -16 40 -9 14
-13 25 -9 25 4 0 2 6 -4 13 -6 8 -8 17 -4 20 3 4 1 7 -5 7 -14 0 -15 -29 -2
-177 5 -61 15 -124 23 -140 17 -31 67 -82 67 -67 0 5 11 -3 25 -18 14 -15 25
-34 25 -41 0 -17 -37 -30 -46 -16 -3 5 -10 7 -15 4 -5 -4 -9 -1 -9 5 0 6 -4 8
-10 5 -5 -3 -10 -1 -10 5 0 6 -4 8 -10 5 -5 -3 -10 -1 -10 4 0 6 -7 11 -15 11
-8 0 -15 5 -15 10 0 6 -8 14 -17 17 -26 10 -83 65 -83 80 0 7 -4 13 -10 13 -5
0 -10 7 -10 15 0 8 -5 15 -11 15 -5 0 -7 5 -4 10 3 6 1 10 -5 10 -6 0 -8 5 -5
10 3 6 1 10 -5 10 -6 0 -8 5 -5 10 3 6 1 10 -5 10 -6 0 -9 4 -5 9 3 5 0 13 -6
16 -5 4 -8 13 -5 21 3 7 0 16 -5 20 -7 4 -9 25 -6 53 l6 46 -13 -40 c-8 -23
-11 -65 -9 -97 3 -32 2 -58 -2 -58 -6 0 -86 164 -140 287 -13 29 -33 93 -45
143 -12 49 -26 90 -31 90 -4 0 -13 -10 -20 -21zM746 3199 c17 -20 53 -71 79 -114 27 -43 51 -73 53 -67 2 7 10 12 18
12 21 0 18 10 -22 76 -42 69 -73 106 -86 98 -5 -3 -15 0 -23 6 -8 7 -15 9 -15
5 0 -4 -8 -1 -17 6 -10 8 -4 -2 13 -22z"/></g>
  <g transform="translate(0,800) scale(0.1,-0.1)" fill="#46464b" stroke="none"><path d="M3674 7360 c0 -63 1 -89 3 -57 2 31 2 83 0 115 -2 31 -3 5 -3 -58zM2870 3864 c0 -8 -4 -12 -10 -9 -5 3 -10 1 -10 -5 0 -6 -4 -8 -10 -5
-5 3 -10 1 -10 -5 0 -6 -4 -9 -9 -6 -5 3 -12 -1 -15 -10 -4 -9 -9 -14 -12 -11
-4 3 -14 -2 -23 -11 -11 -12 -13 -13 -7 -2 5 8 -6 -1 -25 -20 -18 -19 -38 -35
-44 -35 -5 0 -10 -6 -10 -13 0 -6 -39 -49 -86 -95 -47 -45 -76 -75 -64 -67 12
8 6 0 -14 -17 -19 -18 -30 -33 -26 -33 5 0 0 -7 -11 -16 -10 -8 -12 -13 -4 -9
10 4 9 2 -2 -8 -10 -8 -15 -17 -11 -20 3 -4 1 -7 -6 -7 -7 0 -9 -4 -6 -10 3
-5 2 -10 -4 -10 -6 0 -15 -10 -22 -21 -9 -17 -8 -20 3 -14 7 3 5 0 -6 -9 -10
-8 -15 -20 -10 -27 5 -8 3 -10 -6 -4 -10 6 -12 4 -7 -8 3 -9 0 -23 -8 -31 -8
-7 -11 -16 -8 -20 4 -3 1 -6 -6 -6 -7 0 -9 -4 -6 -10 3 -5 2 -10 -4 -10 -6 0
-8 -7 -5 -15 4 -8 1 -15 -6 -15 -6 0 -8 -4 -5 -10 3 -5 1 -10 -5 -10 -7 0 -10
-7 -6 -15 3 -8 1 -15 -5 -15 -6 0 -7 -4 -4 -10 3 -5 1 -10 -5 -10 -7 0 -9 -8
-5 -20 4 -12 2 -20 -5 -20 -7 0 -9 -8 -5 -21 5 -16 4 -19 -5 -14 -10 6 -12 1
-7 -23 4 -20 2 -32 -4 -32 -6 0 -8 -9 -4 -21 5 -16 4 -19 -5 -14 -9 6 -10 -1
-5 -25 5 -25 4 -31 -5 -25 -10 6 -11 -5 -6 -54 6 -50 4 -61 -8 -61 -12 0 -11
-7 5 -40 10 -21 19 -43 19 -49 0 -25 106 -123 163 -151 79 -38 147 -50 147
-25 0 23 44 134 92 229 48 96 104 180 152 226 l37 34 -82 18 c-87 19 -150 45
-157 66 -5 16 122 16 205 -1 l61 -13 -4 28 c-2 18 1 26 8 22 7 -4 8 1 3 16 -5
16 -4 20 5 15 9 -6 10 1 5 25 -5 21 -4 30 3 26 16 -10 21 41 16 176 -5 144
-18 191 -69 253 -38 47 -37 58 6 43 98 -34 169 -220 168 -443 0 -60 -3 -129
-8 -152 l-8 -41 42 -12 c101 -28 266 -144 301 -211 13 -26 19 -29 67 -29 50 0
184 24 195 35 11 10 -21 118 -54 185 -56 111 -182 206 -319 241 -32 8 -49 19
-55 33 -10 27 -5 39 40 106 20 30 39 60 43 67 5 8 -17 10 -88 6 -65 -4 -99 -2
-108 6 -8 6 -17 38 -21 70 -9 79 -55 168 -116 225 -49 46 -90 60 -90 30zM3070 3821 c0 -6 5 -13 10 -16 16 -10 59 -101 68 -142 7 -33 12 -38
38 -41 17 -2 73 4 123 12 104 16 119 14 127 -20 5 -18 -6 -44 -41 -100 -26
-41 -46 -76 -44 -77 2 -1 27 -13 54 -26 127 -58 216 -146 287 -283 l37 -70 -6
73 c-7 86 -35 211 -89 396 l-38 132 -81 30 c-44 17 -125 45 -180 62 -55 17
-105 35 -112 41 -6 5 -23 6 -39 2 -20 -5 -25 -4 -19 6 5 9 2 10 -14 5 -13 -4
-21 -2 -21 5 0 7 -8 9 -21 5 -15 -5 -19 -4 -15 4 4 6 0 11 -8 11 -9 0 -16 -4
-16 -9zM4520 3669 c-36 -10 -77 -18 -91 -18 -14 -1 -34 -11 -45 -23 -10 -11
-45 -38 -76 -58 -68 -44 -67 -61 0 -19 66 41 146 65 256 80 53 7 96 17 96 22
0 6 -3 7 -7 4 -3 -4 -12 2 -20 13 -16 23 -26 23 -113 -1zM4695 3544 c-5 -1 -46 -6 -90 -10 -71 -6 -77 -8 -50 -17 53 -17 94
-55 101 -92 9 -48 0 -74 -39 -120 -19 -22 -32 -45 -30 -50 2 -6 -8 -44 -22
-85 -22 -65 -35 -180 -20 -180 3 0 72 45 154 99 82 55 164 108 183 118 l35 19
-29 17 c-17 10 -26 12 -22 4 4 -6 -9 4 -29 22 -39 37 -48 52 -19 31 9 -7 3 1
-15 18 -17 17 -29 33 -26 36 3 3 -2 8 -11 12 -9 3 -13 10 -10 15 3 5 0 9 -6 9
-6 0 -8 5 -5 10 3 6 1 10 -5 10 -6 0 -8 5 -5 10 3 6 1 10 -5 10 -7 0 -9 8 -5
21 5 14 3 19 -4 15 -10 -6 -8 30 4 70 3 10 -9 14 -30 8zM5554 3175 c-4 -8 -10 -12 -15 -9 -5 3 -12 -2 -15 -10 -3 -9 -10 -14
-15 -11 -4 3 -13 -4 -19 -15 -6 -11 -15 -19 -20 -17 -5 1 -23 -14 -40 -33 -17
-19 -28 -29 -24 -21 5 10 3 12 -5 6 -18 -11 -5 -72 25 -118 14 -21 59 -74 101
-118 55 -57 83 -79 100 -79 32 0 194 75 211 97 20 27 15 31 -51 31 -39 0 -75
6 -95 16 -67 35 -137 173 -129 253 4 44 1 54 -9 28zM2891 2980 c-109 -138 -221 -408 -204 -490 4 -19 33 -43 112 -93
l106 -68 7 76 c19 206 114 385 244 461 39 23 49 39 24 39 -4 0 -18 11 -30 25
-12 14 -19 18 -15 10 4 -10 2 -9 -8 2 -8 10 -17 15 -20 11 -4 -3 -7 -1 -7 6 0
7 -4 9 -10 6 -5 -3 -10 -1 -10 5 0 6 -4 8 -10 5 -5 -3 -10 -1 -10 5 0 6 -4 8
-10 5 -5 -3 -10 -2 -10 4 0 6 -7 7 -17 4 -12 -5 -14 -3 -8 7 6 10 3 12 -13 8
-12 -4 -22 -2 -22 3 0 4 -7 6 -16 2 -9 -3 -20 0 -24 7 -5 9 -20 -3 -49 -40zM5275 2889 c-58 -46 -194 -129 -353 -214 -61 -33 -112 -62 -112 -65
0 -4 32 -25 70 -48 85 -51 141 -66 196 -51 57 16 206 93 311 161 l92 60 -52
61 c-29 34 -63 79 -76 100 -12 20 -23 37 -24 36 -1 0 -24 -18 -52 -40zM4655 2546 c-72 -49 -80 -67 -47 -99 25 -24 89 -57 110 -57 12 0 9
183 -3 187 -6 2 -33 -12 -60 -31zM4605 1758 c-71 -15 -159 -27 -195 -28 -149 -1 -246 -32 -370 -118
-94 -66 -201 -154 -195 -160 7 -7 108 -43 120 -43 6 0 34 7 64 15 30 9 106 25
170 37 64 11 143 30 176 41 36 12 73 18 93 15 23 -4 51 3 99 25 56 27 79 32
145 32 65 1 77 3 72 16 -6 14 -22 76 -41 160 l-8 35 -130 -27z"/></g>
  <g transform="translate(0,800) scale(0.1,-0.1)" fill="#1b4d31" stroke="none"><path d="M7214 4282 c-21 -16 -57 -50 -78 -76 -72 -88 -135 -118 -293 -140
-67 -9 -70 -27 -6 -51 57 -22 139 -23 179 -2 17 9 74 72 129 142 53 69 107
132 118 140 16 11 18 15 6 15 -9 0 -34 -13 -55 -28zM6735 4114 c-15 -11 -16 -16 -5 -29 15 -18 21 -19 43 -2 16 11 16 13
-1 28 -16 14 -22 14 -37 3zM3092 2163 c24 -21 74 -58 111 -83 50 -33 78 -61 106 -105 46 -73 44
-67 92 -238 40 -142 60 -189 101 -242 21 -27 27 -30 63 -25 36 5 124 55 125
70 0 4 -15 11 -34 18 -52 19 -149 127 -174 195 -12 32 -22 71 -22 86 0 22 -7
31 -29 40 -38 16 -80 61 -133 146 -54 84 -71 100 -127 120 -24 8 -58 24 -76
35 -50 31 -51 24 -3 -17zM4620 2055 c-30 -8 -97 -23 -149 -35 -51 -11 -119 -34 -150 -49 -56
-29 -152 -100 -118 -88 10 4 28 7 39 7 12 0 18 3 14 7 -11 11 87 51 194 78
108 27 190 57 224 80 24 17 19 17 -54 0z"/></g>
  <g transform="translate(0,800) scale(0.1,-0.1)" fill="#030405" stroke="none"><path d="M3870 7768 c-95 -5 -182 -16 -224 -27 -42 -12 -76 -16 -85 -11 -88
47 -247 22 -351 -55 -47 -34 -48 -35 -84 -20 -71 30 -141 29 -269 -4 -136 -34
-208 -65 -259 -110 -28 -24 -45 -31 -79 -31 -111 0 -230 -62 -299 -155 -44
-59 -66 -137 -51 -179 17 -42 14 -42 -36 12 -90 94 -222 100 -311 12 -72 -69
-85 -151 -56 -364 8 -65 13 -120 11 -122 -2 -2 -18 17 -36 43 -74 108 -182
145 -312 107 -137 -40 -353 -262 -379 -390 -11 -53 -12 -54 -56 -65 -25 -7
-71 -31 -102 -54 -83 -61 -239 -280 -263 -370 -17 -60 -4 -152 27 -196 28 -40
91 -89 115 -89 8 0 30 -15 47 -33 l33 -34 -66 -18 c-138 -37 -277 -122 -378
-230 -103 -110 -187 -285 -187 -390 0 -52 12 -59 62 -34 42 21 133 38 166 30
12 -4 38 -18 57 -34 l34 -27 -15 -43 c-25 -69 -82 -294 -103 -409 -36 -188
-52 -347 -58 -568 -10 -384 37 -748 143 -1098 32 -105 33 -114 18 -137 -23
-35 -44 -122 -44 -184 0 -52 19 -145 42 -206 40 -105 165 -217 278 -249 49
-14 58 -21 78 -59 12 -23 29 -74 37 -113 24 -119 69 -214 137 -290 15 -17 19
-38 19 -115 1 -169 28 -224 163 -334 94 -76 148 -94 224 -75 26 6 62 23 80 37
18 14 34 23 36 22 80 -129 134 -175 264 -226 56 -23 77 -37 101 -70 17 -24 48
-54 68 -67 39 -25 132 -53 192 -58 24 -2 40 -11 58 -35 40 -52 102 -87 211
-118 88 -24 108 -35 147 -71 49 -47 101 -67 222 -86 54 -8 85 -7 118 1 43 11
48 10 80 -15 33 -25 155 -63 203 -64 13 0 36 -9 51 -19 15 -11 58 -28 95 -37
59 -15 79 -15 154 -5 47 7 100 18 118 26 28 11 38 11 76 -3 29 -11 81 -17 158
-18 63 -2 131 -7 150 -13 56 -17 98 -13 246 24 76 20 173 40 214 45 54 7 88
18 123 40 48 29 48 30 107 16 51 -12 69 -12 119 -1 85 20 204 70 269 112 32
21 73 45 93 54 20 9 49 30 65 47 16 17 77 53 136 80 l107 50 21 -31 c50 -72
136 -104 221 -82 112 30 193 133 235 301 15 60 18 64 53 74 20 5 41 10 47 10
25 0 114 76 172 147 45 56 67 94 79 135 16 57 16 57 67 69 77 17 138 62 208
150 35 44 81 91 103 104 56 32 91 68 146 153 30 45 52 93 59 126 10 48 14 54
50 70 71 31 130 124 130 205 0 12 17 31 44 50 73 51 172 224 182 318 9 81 -9
137 -60 191 l-42 44 32 109 c102 335 154 784 134 1149 -5 91 -9 175 -10 188 0
20 5 22 53 22 191 0 314 221 237 425 -44 116 -129 167 -245 148 -33 -6 -61 -9
-63 -8 -2 1 11 16 28 33 36 36 40 82 10 112 -28 28 -65 35 -123 21 -27 -6 -51
-10 -53 -8 -3 3 -64 166 -64 172 0 2 18 9 41 15 61 17 124 84 145 156 33 113
-4 205 -108 273 l-63 41 -1 69 c0 57 -6 81 -34 138 -37 76 -131 178 -174 189
-21 5 -25 10 -20 30 3 13 0 47 -6 76 -11 44 -24 63 -84 123 -39 38 -104 107
-144 153 -76 85 -140 136 -185 147 -17 5 -26 13 -24 24 6 51 -17 106 -64 153
-26 26 -53 48 -60 48 -6 0 -64 43 -128 95 -126 102 -178 130 -257 140 -50 7
-50 7 -68 58 -24 67 -113 154 -225 221 -114 68 -179 90 -274 91 l-79 0 -13 39
c-16 47 -56 90 -99 107 -17 7 -56 27 -86 45 -58 35 -164 64 -231 64 -64 0
-170 -28 -225 -60 -67 -38 -153 -117 -195 -179 -39 -57 -32 -56 -179 -36 -58
8 -108 15 -113 15 -4 0 0 11 9 25 31 47 43 126 33 215 -10 89 -25 126 -66 164
-28 26 -94 47 -140 45 -15 -1 -98 -6 -183 -11z m227 -150 c19 -24 24 -136 9
-173 -22 -51 -97 -61 -109 -15 -5 18 -14 20 -85 20 -87 0 -92 -4 -92 -72 0
-51 8 -58 67 -58 44 0 58 4 72 21 21 26 66 28 89 5 22 -21 28 -141 10 -176
-15 -27 -69 -40 -92 -21 -8 7 -34 8 -71 3 -65 -8 -72 -17 -74 -94 l-1 -38 49
0 c67 0 111 10 111 26 0 23 31 44 65 44 49 0 65 -28 65 -115 0 -101 -11 -111
-126 -113 -49 -1 -128 -7 -176 -13 -101 -14 -152 -7 -173 24 -22 31 -19 61 10
95 l25 30 0 236 c0 224 -1 238 -21 265 -30 41 -22 72 26 96 32 15 71 20 200
25 88 4 172 7 186 8 15 1 31 -4 36 -10z m-585 -35 c24 -21 23 -64 -2 -96 -25
-32 -25 -38 1 -282 22 -196 23 -200 51 -223 33 -28 39 -81 10 -109 -22 -23
-154 -57 -186 -49 -14 3 -32 13 -41 22 -15 15 -17 15 -34 -1 -21 -18 -102 -45
-137 -45 -13 0 -64 28 -114 61 -50 34 -93 59 -96 56 -14 -14 7 -56 28 -59 13
-2 29 -15 36 -30 21 -44 -1 -77 -72 -112 -86 -41 -128 -45 -160 -13 -32 32
-33 57 -2 94 18 21 23 37 19 58 -11 67 -74 391 -79 408 -3 9 -14 17 -25 17
-28 0 -59 36 -59 69 0 64 73 114 228 157 145 40 219 27 257 -47 40 -76 24
-231 -35 -338 l-30 -55 27 -23 c75 -64 110 -80 161 -75 42 4 51 1 64 -17 14
-20 16 -20 30 -4 14 16 14 40 -3 233 -10 118 -18 224 -18 235 -1 13 -12 25
-31 32 -41 16 -50 56 -19 90 62 66 182 90 231 46z m1528 -164 c24 -11 59 -31
77 -45 17 -13 40 -24 51 -24 48 0 59 -64 27 -161 -23 -70 -59 -119 -89 -119
-40 0 -57 22 -63 83 -5 52 -9 60 -37 74 -45 23 -132 21 -182 -5 -82 -42 -137
-129 -137 -219 0 -102 61 -158 173 -158 51 1 76 7 117 28 65 33 118 35 150 5
52 -49 16 -111 -99 -167 -138 -68 -247 -73 -344 -16 -162 95 -199 297 -94 506
44 86 120 162 202 204 60 30 81 35 137 35 45 0 80 -7 111 -21z m-2492 -72 c21
-25 24 -65 7 -94 -16 -28 -15 -32 55 -228 40 -110 74 -208 77 -217 3 -10 13
-18 23 -18 18 0 43 -24 53 -53 14 -39 -4 -67 -72 -107 -90 -53 -115 -58 -152
-31 -28 21 -29 21 -29 2 0 -24 -119 -128 -157 -137 -16 -4 -37 -1 -52 7 -26
15 -31 41 -20 104 3 14 -1 20 -13 20 -24 0 -132 -80 -148 -110 -12 -22 -10
-27 19 -54 43 -40 41 -74 -6 -118 -63 -59 -115 -93 -140 -93 -15 0 -34 -12
-50 -30 -47 -56 -73 -63 -202 -55 l-116 7 23 -24 c16 -18 30 -23 51 -20 32 4
61 -26 61 -64 0 -26 -79 -135 -115 -158 -64 -42 -129 0 -107 71 10 34 8 39
-41 112 -28 42 -85 123 -126 181 -73 101 -77 105 -103 96 -43 -15 -78 14 -78
65 0 58 33 113 118 197 139 137 215 164 285 102 62 -54 106 -204 94 -320 l-6
-56 57 -12 c82 -17 113 -15 138 9 13 12 38 24 56 28 l33 7 -3 75 c-2 41 -16
174 -32 297 -30 220 -36 315 -24 347 4 8 19 22 35 30 37 20 73 6 99 -37 11
-18 101 -112 201 -208 142 -136 187 -174 205 -172 13 2 31 -5 42 -16 19 -19
19 -19 36 12 16 31 15 34 -57 251 -41 121 -79 221 -85 221 -7 1 -19 2 -27 3
-8 0 -22 13 -32 27 -16 25 -16 28 2 61 19 35 71 80 115 100 34 16 95 16 108 0z
m1790 -149 c64 -9 82 -14 78 -25 -3 -8 -13 -44 -21 -79 -43 -185 11 -359 148
-479 66 -58 120 -84 202 -98 36 -6 65 -14 65 -17 0 -4 -24 -23 -53 -43 l-54
-37 -134 34 c-274 70 -467 91 -764 83 -214 -5 -338 -20 -524 -61 l-105 -23
-75 60 c-42 32 -78 61 -79 62 -2 2 13 12 35 23 21 11 47 30 57 41 15 16 27 20
47 16 15 -3 60 2 100 13 56 14 83 16 112 9 29 -7 59 -4 130 13 82 20 98 21
157 10 49 -9 83 -10 140 -1 41 6 118 12 170 12 154 1 209 24 258 108 44 74 41
256 -5 329 -17 27 -8 62 15 62 9 0 54 -5 100 -12z m1231 -47 c98 -50 179 -108
212 -154 28 -38 30 -48 27 -100 -3 -43 -12 -67 -34 -99 -39 -56 -114 -112
-187 -139 l-58 -22 7 -46 c12 -85 30 -125 74 -168 30 -31 41 -49 37 -63 -4
-15 0 -20 14 -20 20 0 47 34 192 243 71 101 83 124 87 169 10 102 63 91 240
-53 69 -55 135 -105 147 -109 46 -19 48 -45 7 -115 -47 -79 -81 -99 -122 -68
-19 14 -27 30 -27 50 0 24 -12 40 -59 82 -33 28 -64 50 -70 48 -6 -2 -24 -23
-41 -46 l-30 -43 44 -39 c30 -27 52 -39 70 -37 65 4 96 -47 66 -112 -20 -45
-71 -100 -92 -100 -25 0 -52 20 -68 49 -8 16 -36 43 -62 60 l-48 32 -32 -38
c-18 -21 -33 -43 -33 -49 0 -14 46 -55 90 -82 31 -18 37 -19 54 -6 11 8 23 14
27 14 17 0 69 -53 69 -71 0 -21 -54 -121 -73 -137 -30 -24 -55 -23 -84 3 -40
36 -139 111 -199 150 -71 45 -124 101 -124 128 0 19 -11 28 -55 46 -69 29
-109 74 -130 148 -9 32 -23 83 -31 113 l-16 55 -14 -28 c-13 -24 -13 -30 2
-51 26 -41 -4 -96 -53 -96 -37 0 -149 56 -172 87 -41 51 -17 113 43 113 30 0
34 5 135 201 100 194 103 201 85 220 -26 28 -22 78 7 102 33 27 98 19 178 -22z
m-2774 -697 c-24 -42 -52 -98 -61 -124 -15 -43 -23 -50 -82 -79 -110 -54 -289
-167 -411 -259 -132 -99 -354 -310 -455 -434 l-70 -85 -45 32 c-26 18 -65 43
-87 54 -38 20 -42 26 -48 73 -4 28 -11 59 -17 69 -8 16 -4 17 44 12 67 -7 126
9 178 50 52 39 146 161 154 198 4 19 16 31 37 38 17 6 49 26 72 44 23 19 61
43 86 54 64 29 176 128 197 174 12 26 25 39 38 39 54 1 132 32 186 74 43 34
72 48 118 57 36 7 85 27 123 50 35 22 68 39 75 39 6 0 -9 -34 -32 -76z m2185
31 c39 -80 130 -141 262 -174 48 -12 76 -26 91 -43 12 -14 46 -41 74 -60 29
-19 66 -53 82 -75 16 -23 60 -62 98 -89 105 -73 185 -134 222 -171 19 -18 38
-33 41 -33 4 0 20 -25 35 -55 17 -35 59 -88 113 -143 135 -136 199 -214 215
-260 40 -115 154 -254 220 -266 l37 -7 0 -67 c0 -193 109 -342 250 -342 24 0
24 0 -8 -29 -38 -36 -52 -67 -45 -104 7 -35 38 -57 80 -57 18 0 33 -3 33 -7 0
-5 -23 -21 -51 -38 -28 -16 -78 -58 -110 -93 -53 -57 -59 -60 -63 -40 -54 258
-126 469 -236 693 -252 512 -651 925 -1163 1201 l-109 59 -23 68 c-21 62 -62
130 -89 150 -7 4 -6 10 4 17 8 5 16 10 17 10 0 0 11 -20 23 -45z m-1968 -26
c161 -121 326 -346 416 -568 35 -87 47 -105 61 -97 15 10 14 70 -4 136 -8 30
-13 55 -12 56 8 6 140 44 172 50 33 6 59 25 145 108 115 111 210 179 324 231
78 36 96 41 96 26 0 -15 -74 -102 -153 -180 -42 -41 -74 -78 -71 -83 10 -16
42 -7 106 32 l65 39 86 -9 c103 -10 202 -34 274 -66 69 -31 163 -91 163 -104
0 -15 -157 -12 -282 6 -113 17 -137 13 -125 -20 8 -20 40 -33 134 -56 174 -43
472 -315 473 -431 0 -27 0 -27 -117 -39 -164 -18 -424 -8 -748 29 -485 55
-691 36 -983 -91 -51 -22 -95 -38 -98 -35 -9 9 84 99 95 92 16 -9 51 4 51 20
0 8 -25 26 -56 41 -126 59 -232 211 -255 364 -19 125 6 278 72 436 32 76 83
164 96 164 5 0 38 -23 75 -51z m998 -36 c-1 -5 -42 -33 -92 -63 -57 -34 -124
-86 -175 -137 -75 -74 -90 -84 -145 -98 -33 -8 -81 -24 -106 -35 -24 -11 -46
-20 -48 -20 -2 0 -22 37 -45 81 -24 45 -62 109 -87 141 -24 33 -42 61 -40 63
13 14 281 55 443 68 84 7 295 7 295 0z m913 -57 c75 -150 69 -407 -13 -594
l-19 -42 -64 62 c-35 35 -86 79 -114 98 l-51 35 41 20 c53 25 74 64 57 106
-15 35 -66 81 -120 109 -22 11 -40 24 -40 29 0 28 260 244 285 237 6 -1 23
-28 38 -60z m-518 9 c100 -21 195 -46 195 -53 0 -2 -15 -21 -34 -42 -18 -20
-35 -42 -37 -49 -3 -8 -26 -6 -84 9 -44 12 -115 21 -157 22 l-78 2 21 30 c11
17 27 48 35 68 13 30 20 37 38 33 11 -2 57 -11 101 -20z m2110 -25 c18 -11 73
-66 123 -123 49 -56 108 -119 131 -139 54 -48 53 -70 -8 -136 -43 -46 -53 -53
-82 -50 -41 4 -76 47 -61 74 8 14 4 27 -20 60 -17 23 -44 55 -60 71 l-29 28
-40 -43 -40 -43 42 -50 c31 -37 46 -48 60 -44 23 8 69 -35 69 -65 0 -48 -78
-140 -119 -140 -20 0 -71 53 -71 74 0 12 -80 96 -93 96 -14 0 -77 -63 -77 -77
0 -7 22 -36 49 -63 44 -44 53 -48 83 -44 30 5 38 2 61 -26 15 -17 27 -38 27
-45 0 -23 -100 -135 -122 -135 -24 0 -58 17 -58 30 0 5 -57 68 -127 141 -71
72 -131 136 -134 142 -20 37 -19 56 7 87 22 26 33 31 55 26 25 -5 42 10 183
155 134 137 156 164 156 191 0 34 24 68 48 68 8 0 29 -9 47 -20z m-5359 -105
c48 -37 71 -81 90 -175 19 -95 15 -215 -11 -310 l-15 -55 29 -29 c24 -24 32
-26 49 -17 48 26 92 -1 92 -56 0 -40 -68 -162 -108 -193 -53 -42 -108 -11
-100 57 5 37 2 41 -156 206 -132 138 -165 167 -188 167 -40 0 -68 32 -68 78 0
67 165 296 245 340 37 21 105 14 141 -13z m4164 -251 c303 -201 598 -506 783
-809 115 -190 220 -425 278 -623 28 -95 79 -320 79 -348 0 -6 -73 -55 -162
-109 -90 -53 -193 -119 -229 -146 -63 -47 -67 -48 -117 -42 -93 11 -178 -41
-197 -119 -8 -33 -125 -118 -430 -315 -292 -188 -297 -191 -321 -182 -42 15
-203 237 -189 260 3 3 18 9 34 12 30 6 45 29 36 56 -3 9 -37 39 -76 67 l-70
52 68 38 c147 81 283 187 342 268 19 25 38 46 42 46 4 0 15 -31 25 -70 27
-101 59 -104 107 -6 56 114 73 261 43 376 -8 30 -13 56 -12 58 2 1 19 -16 40
-38 42 -45 47 -47 68 -22 46 52 27 142 -55 265 -34 51 -89 119 -122 153 l-61
60 29 40 c60 80 107 227 107 332 0 24 6 45 16 53 51 42 59 142 18 203 l-27 39
-146 -7 c-80 -3 -158 -9 -172 -12 -24 -5 -30 0 -61 59 l-34 65 29 57 c39 78
75 226 83 341 l7 94 76 -41 c42 -23 119 -70 171 -105z m-2651 22 c0 -129 16
-207 63 -300 32 -64 123 -161 173 -186 17 -8 31 -15 33 -16 2 -1 -15 -19 -38
-41 -24 -23 -50 -61 -64 -95 -18 -46 -33 -64 -72 -91 -27 -19 -62 -53 -79 -76
-24 -35 -29 -52 -30 -101 0 -51 4 -62 29 -89 16 -17 28 -32 25 -33 -2 -2 -26
-14 -54 -28 -111 -55 -216 -192 -251 -331 -18 -71 -6 -129 27 -129 10 0 19 4
19 8 0 12 91 78 119 87 l24 7 -20 -28 c-40 -57 -58 -125 -58 -214 0 -74 4 -93
32 -152 22 -47 42 -74 65 -88 40 -24 42 -24 62 -5 10 10 13 26 10 48 -6 32 9
87 23 87 5 0 21 -26 38 -58 16 -31 63 -92 104 -134 46 -49 68 -79 60 -81 -8
-3 -36 -10 -64 -16 -69 -16 -186 -73 -260 -125 -89 -64 -213 -200 -265 -291
-83 -147 -145 -330 -157 -468 -4 -42 -10 -66 -17 -64 -20 5 -76 130 -91 202
-28 133 -14 295 50 585 60 275 93 440 105 543 16 123 8 359 -15 439 -50 181
-176 390 -343 570 l-45 48 44 57 c80 106 329 345 462 445 96 72 339 228 354
228 1 0 2 -51 2 -114z m4270 -192 c34 -24 101 -133 101 -164 0 -53 -71 -100
-99 -66 -11 13 -16 12 -47 -6 -19 -11 -34 -22 -34 -24 0 -5 56 -32 242 -117
42 -19 86 -45 97 -56 39 -39 21 -111 -35 -139 -28 -15 -66 -3 -157 47 -77 42
-177 84 -184 77 -2 -2 -10 -71 -18 -152 -8 -82 -19 -171 -24 -199 -5 -27 -7
-70 -4 -95 4 -37 1 -48 -15 -63 -34 -31 -72 -19 -107 33 -28 42 -30 51 -30
135 0 50 6 155 13 234 7 79 10 146 7 149 -2 3 -24 -11 -48 -31 -36 -29 -43
-41 -40 -61 6 -28 -34 -76 -63 -76 -38 0 -145 153 -146 209 -1 34 26 71 52 71
9 0 25 -6 35 -14 16 -12 30 -6 127 57 239 153 259 169 274 211 19 58 56 72
103 40z m-5957 -321 c33 -34 49 -59 54 -88 9 -52 26 -84 61 -116 44 -42 73
-53 139 -53 99 0 173 56 248 187 15 26 31 47 37 47 17 0 153 -96 212 -150 124
-114 279 -328 337 -466 44 -107 61 -202 61 -340 1 -146 -18 -280 -77 -559 -62
-293 -74 -370 -81 -530 -9 -228 32 -377 133 -483 37 -38 45 -55 54 -106 21
-122 118 -264 212 -312 18 -9 35 -18 37 -20 2 -2 -10 -19 -26 -37 -40 -45 -74
-118 -93 -197 l-16 -65 -50 -3 c-27 -2 -82 -1 -123 3 -81 8 -72 1 -156 107
l-45 56 35 21 c36 21 47 57 21 67 -8 3 -41 -2 -74 -11 l-59 -17 -57 38 c-31
20 -80 45 -109 55 -41 14 -51 22 -49 37 3 22 -52 248 -73 298 -23 55 -92 141
-140 174 -59 40 -97 56 -171 69 -116 21 -271 -29 -362 -117 -24 -24 -45 -42
-46 -40 -2 2 -18 41 -36 88 -18 47 -46 111 -62 142 -15 32 -28 59 -28 62 0 2
23 -4 50 -15 28 -10 58 -19 67 -19 9 0 52 -18 95 -41 85 -43 121 -47 126 -13
2 16 -12 31 -63 64 -136 88 -249 254 -297 435 -18 68 -22 120 -27 338 -3 141
-3 256 0 255 3 -2 26 -28 51 -59 30 -37 49 -72 58 -108 22 -93 108 -194 103
-121 -1 14 -11 57 -23 95 -20 62 -23 95 -26 285 -2 180 -6 228 -23 295 -26 97
-75 203 -125 268 -33 44 -35 48 -14 41 25 -8 78 -42 181 -117 63 -46 97 -55
97 -26 0 23 -74 111 -124 149 -140 104 -302 143 -444 106 -52 -13 -52 -13 -46
8 43 139 204 327 344 400 61 32 225 84 270 86 9 0 37 -21 62 -47z m4140 -157
c-8 -76 -141 -246 -205 -262 -36 -8 -47 2 -20 21 11 8 33 40 49 72 24 48 29
69 27 120 l-2 62 52 9 c29 6 63 9 77 9 21 -2 25 -6 22 -31z m-1828 -72 c19
-233 118 -435 256 -524 88 -56 181 -82 300 -84 128 -1 178 14 279 85 126 88
235 242 270 380 10 41 21 73 25 72 3 -2 12 -3 20 -3 8 0 17 -16 21 -37 9 -53
43 -128 66 -149 27 -24 24 -41 -8 -49 -30 -7 -87 -47 -115 -80 -10 -11 -25
-44 -35 -73 -14 -45 -15 -60 -5 -99 28 -103 93 -151 269 -199 29 -8 -56 -114
-128 -160 -166 -105 -399 -83 -704 66 -107 52 -265 154 -265 172 0 3 14 11 30
17 43 15 38 38 -11 51 -35 10 -50 9 -86 -5 -65 -25 -117 -98 -105 -147 6 -26
19 -22 59 17 20 19 39 35 42 35 4 0 14 -46 24 -102 37 -216 111 -416 202 -543
88 -124 203 -185 352 -185 116 0 228 64 281 161 25 45 30 49 64 49 20 0 48 4
62 9 27 11 67 72 102 159 l22 56 68 3 c123 5 230 52 327 143 143 133 180 299
97 433 -17 27 -24 47 -17 47 7 0 37 11 68 24 l57 23 43 -51 c48 -55 169 -233
169 -249 0 -5 -10 -2 -22 7 -13 9 -40 25 -60 36 -77 42 -93 18 -49 -72 39 -80
55 -163 48 -258 -6 -74 -24 -150 -37 -150 -3 0 -11 15 -18 34 -14 39 -75 121
-95 129 -8 3 -20 1 -27 -3 -11 -7 -11 -14 0 -39 12 -29 10 -34 -28 -84 -103
-134 -322 -278 -518 -342 -42 -14 -80 -25 -84 -25 -5 0 1 18 13 40 17 30 19
42 10 51 -9 9 -37 -14 -120 -98 -117 -118 -164 -148 -258 -163 -115 -19 -227
10 -463 119 -74 34 -188 77 -255 97 -134 39 -233 79 -311 127 -130 79 -246
188 -319 302 -42 64 -44 72 -31 92 16 25 10 48 -13 57 -21 8 -97 -71 -114
-118 -7 -20 -16 -36 -19 -36 -4 0 -13 19 -20 43 -17 59 -15 165 6 218 22 55
61 116 80 123 20 8 17 34 -5 46 -28 15 -96 12 -138 -5 -46 -20 -46 -20 -38 12
27 109 179 243 320 282 82 23 86 43 10 45 l-46 1 6 35 c18 104 47 135 187 206
73 37 269 111 299 114 3 0 9 -39 13 -86z m725 66 c41 -6 79 -14 84 -19 16 -16
-71 -149 -152 -232 -106 -110 -125 -105 -75 20 20 49 28 88 30 151 2 47 3 86
4 88 0 4 33 2 109 -8z m2991 -211 c28 -10 31 -15 96 -203 42 -124 48 -154 22
-128 -16 16 -91 15 -132 -2 -65 -27 -96 -103 -61 -150 8 -10 31 -22 52 -26
l38 -7 -75 -36 c-41 -19 -76 -34 -78 -32 -2 2 4 17 12 34 9 16 16 42 16 57 0
33 -35 74 -63 74 -16 0 -11 9 25 45 52 51 74 117 65 188 -3 23 -2 62 3 87 5
25 12 62 15 83 5 31 9 37 23 32 9 -4 28 -11 42 -16z m-2154 -232 c9 -9 -55
-77 -72 -77 -23 0 -184 62 -184 70 0 5 10 11 23 13 35 8 224 3 233 -6z m2508
-13 c26 -10 19 -42 -13 -58 -32 -17 -42 -35 -34 -64 6 -25 -14 -38 -21 -14 -4
10 -21 25 -39 33 -69 30 -30 109 54 109 20 0 44 -3 53 -6z m-6724 -111 c53
-116 84 -283 78 -428 l-3 -80 -40 62 c-43 67 -71 89 -101 79 -18 -5 -19 -22
-21 -273 -2 -153 2 -307 8 -358 20 -160 73 -309 151 -423 17 -24 28 -45 26
-48 -6 -5 -147 82 -175 108 -13 13 -30 19 -42 15 -28 -7 -29 -1 -40 210 -18
312 11 654 80 948 58 243 55 237 79 188z m4371 -76 c41 -79 22 -182 -47 -271
-96 -122 -261 -188 -402 -160 l-30 6 68 67 c51 50 71 77 80 111 7 25 14 51 16
58 2 6 16 12 32 12 81 0 200 104 223 196 10 37 14 42 26 32 8 -6 23 -29 34
-51z m2097 41 c2 -9 -6 -26 -17 -37 -12 -12 -21 -31 -21 -44 0 -34 -11 -40
-28 -16 -10 14 -21 19 -37 15 -52 -13 -58 61 -7 89 36 20 106 16 110 -7z m450
-80 c52 -43 70 -178 35 -259 -40 -91 -126 -126 -240 -99 -47 12 -59 12 -81 -1
-14 -8 -71 -72 -126 -143 -56 -70 -114 -135 -131 -144 -42 -22 -130 -18 -189
7 l-49 21 -272 -175 c-150 -96 -277 -175 -283 -175 -6 0 -13 4 -17 9 -5 9 57
50 431 290 115 73 115 74 96 93 -19 20 -21 19 -218 -108 -110 -71 -228 -148
-264 -171 -36 -24 -71 -43 -77 -43 -42 0 17 46 256 200 245 157 269 174 258
191 -7 11 -15 19 -19 19 -8 0 -99 -58 -360 -227 -95 -62 -177 -111 -182 -110
-34 11 -25 17 384 278 160 102 158 100 141 128 -7 11 -21 5 -67 -27 -33 -23
-160 -106 -284 -186 -171 -110 -228 -142 -238 -134 -10 9 -2 18 35 42 26 17
104 67 173 111 69 45 175 112 235 150 61 37 133 90 162 115 59 54 178 118 408
218 88 39 183 81 210 95 130 63 224 75 273 35z m-708 -3 c10 -12 8 -23 -9 -58
-12 -24 -19 -52 -15 -61 8 -20 -3 -21 -22 -1 -9 8 -30 15 -48 15 -47 0 -65 23
-45 58 27 49 113 78 139 47z m-2421 -439 c7 -8 26 -18 42 -21 38 -8 37 -24 -4
-105 -31 -61 -36 -65 -71 -68 -37 -3 -38 -3 -31 27 3 17 7 61 7 98 0 65 7 82
34 83 6 0 17 -6 23 -14z m-90 -12 c5 -4 -25 -174 -31 -180 -2 -1 -22 0 -45 3
l-43 6 -25 82 c-14 46 -25 87 -25 92 0 8 160 5 169 -3z m-601 -36 c36 -9 60
-25 105 -70 31 -32 57 -63 57 -68 0 -6 7 -10 16 -10 13 0 15 7 11 30 -7 35 0
37 46 14 44 -23 86 -63 107 -105 19 -36 42 -140 33 -149 -2 -3 -39 -5 -81 -4
-160 1 -260 74 -351 256 -28 55 -48 105 -45 109 7 12 47 11 102 -3z m3546
-333 c0 -319 -9 -427 -59 -680 -25 -121 -88 -365 -102 -390 -6 -9 -55 31 -168
137 -88 82 -181 165 -206 184 -53 39 -131 59 -193 50 l-43 -7 14 53 c39 150
73 413 73 567 0 98 -3 93 98 165 l53 38 52 -23 c39 -17 72 -23 132 -23 112 -1
149 22 252 157 64 85 80 101 88 88 6 -10 10 -137 9 -316z m-4244 61 c84 -57
209 -118 298 -146 54 -17 133 -44 177 -61 l81 -30 38 -132 c54 -185 82 -310
89 -396 l6 -73 -37 70 c-71 137 -160 225 -287 283 -27 13 -52 25 -54 26 -2 1
18 36 44 77 35 56 46 82 41 100 -8 34 -23 36 -127 20 -50 -8 -106 -14 -123
-12 -26 3 -31 8 -38 41 -13 61 -54 131 -108 183 -28 27 -55 51 -60 52 -6 2
-10 8 -10 13 0 17 35 9 70 -15z m-80 -62 c61 -57 107 -146 116 -225 4 -32 13
-64 21 -70 9 -8 43 -10 108 -6 71 4 93 2 88 -6 -4 -7 -23 -37 -43 -67 -45 -67
-50 -79 -40 -106 6 -14 23 -25 55 -33 137 -35 263 -130 319 -241 33 -67 65
-175 54 -185 -11 -11 -145 -35 -195 -35 -48 0 -54 3 -67 29 -35 67 -200 183
-301 211 l-42 12 8 41 c5 23 8 92 8 152 1 223 -70 409 -168 443 -43 15 -44 4
-6 -43 61 -74 67 -105 69 -347 0 -119 -1 -219 -4 -222 -3 -3 -26 2 -50 10 -25
9 -92 19 -149 22 -86 4 -103 3 -99 -9 7 -22 68 -48 157 -67 l82 -18 -37 -34
c-48 -46 -104 -130 -152 -226 -48 -95 -92 -206 -92 -229 0 -25 -68 -13 -147
25 -57 28 -163 126 -163 151 0 5 -10 31 -22 57 -40 83 -25 283 33 463 85 266
273 483 499 576 82 34 103 31 160 -23z m3065 -43 c51 -36 117 -133 141 -208
14 -41 19 -88 19 -163 0 -96 -2 -110 -30 -163 -80 -159 -304 -316 -415 -292
-32 7 -84 61 -115 119 l-19 35 27 21 c65 51 72 124 18 186 -26 29 -31 43 -31
84 0 57 18 80 61 80 42 0 140 -52 177 -94 35 -41 42 -43 42 -18 0 35 -38 78
-98 110 -73 39 -102 73 -102 119 0 26 8 42 31 64 17 16 38 29 47 29 25 0 200
-101 248 -143 30 -26 44 -34 44 -23 0 26 -59 85 -124 122 -33 20 -71 45 -83
57 -32 29 -30 70 5 97 36 29 101 21 157 -19z m455 -162 c-27 -334 -107 -633
-250 -935 -55 -116 -59 -122 -108 -149 -28 -15 -63 -45 -78 -67 -27 -38 -54
-122 -54 -165 0 -22 -3 -22 -57 -17 -86 9 -137 -8 -194 -67 -39 -40 -50 -59
-59 -105 -7 -31 -10 -78 -8 -105 3 -46 -3 -61 -16 -40 -3 5 -28 14 -56 21 -95
23 -186 -15 -281 -117 -88 -93 -121 -171 -116 -268 l2 -40 -132 -67 -131 -68
-20 32 c-13 21 -18 43 -15 60 3 17 -5 52 -21 93 -25 62 -49 162 -61 255 l-6
45 62 35 c130 73 209 182 209 288 0 61 -26 120 -66 149 l-27 20 63 6 c78 7
216 72 373 176 108 71 130 81 143 60 13 -22 108 -4 190 35 136 64 174 105 174
188 0 41 3 44 52 73 72 41 185 157 230 234 48 83 62 152 54 266 -4 50 -8 104
-9 122 -2 30 4 36 108 107 60 41 111 74 112 72 2 -1 -1 -59 -7 -127z m-1766
55 c20 -20 36 -38 36 -40 0 -2 -26 -3 -57 -2 -130 2 -302 -38 -386 -92 -25
-15 -48 -26 -51 -23 -3 3 16 19 42 35 26 17 59 42 75 56 20 19 50 30 110 43
45 9 103 26 127 37 25 12 50 21 57 22 6 0 27 -16 47 -36z m-948 -99 c130 -57
231 -78 341 -73 74 4 93 2 97 -9 13 -34 3 -45 -68 -79 -108 -51 -196 -57 -310
-20 l-84 28 -23 61 c-12 34 -31 80 -42 101 -13 27 -15 37 -5 33 7 -3 50 -22
94 -42z m1834 7 c0 -11 -52 -51 -157 -118 -263 -169 -812 -523 -918 -592 -132
-86 -203 -131 -368 -236 -95 -61 -139 -95 -143 -111 -5 -19 -14 -24 -52 -27
-57 -5 -63 -2 -34 22 12 10 22 23 22 29 0 12 35 33 42 25 3 -3 167 99 364 227
437 282 416 269 804 519 173 111 340 220 370 240 63 44 70 46 70 22z m-831
-100 c25 -66 79 -152 134 -211 39 -42 39 -41 -23 -75 -19 -11 -101 -64 -182
-118 -81 -54 -150 -98 -153 -98 -15 0 -2 115 20 180 14 41 24 79 22 85 -2 5
11 28 30 50 39 46 48 72 39 120 -7 37 -48 75 -101 92 -27 9 -21 11 50 17 44 4
84 8 89 10 46 11 54 5 75 -52z m821 8 c0 -6 -10 -19 -22 -30 -19 -16 -466
-306 -660 -429 -80 -50 -390 -249 -523 -335 -60 -40 -158 -103 -217 -141 -100
-64 -106 -70 -101 -96 4 -21 1 -28 -16 -34 -13 -4 -28 -1 -37 6 -13 10 -20 10
-36 0 -14 -9 -23 -10 -31 -2 -6 6 -9 12 -6 14 4 4 68 45 304 199 132 86 417
269 503 323 26 16 117 75 202 130 85 56 218 141 295 190 77 50 183 118 235
152 97 64 110 70 110 53z m-1039 -80 c30 -16 23 -36 -34 -98 -68 -74 -93 -115
-111 -186 -17 -66 -13 -121 15 -185 l20 -45 -28 -22 -27 -21 -21 31 c-29 43
-86 62 -143 47 -45 -13 -79 -43 -186 -165 -61 -70 -121 -108 -196 -125 -40 -9
-45 -7 -107 34 -56 38 -112 64 -218 101 -14 4 4 11 57 20 93 17 183 52 258
101 30 20 143 125 250 233 208 211 258 248 366 274 74 18 81 18 105 6z m983
-64 c-4 -10 -39 -33 -79 -51 -39 -18 -89 -50 -110 -71 -42 -41 -50 -47 -375
-254 -118 -76 -359 -230 -535 -344 -314 -202 -320 -207 -320 -239 l0 -34 125
80 c69 44 163 105 210 135 221 143 261 169 350 227 52 34 154 99 225 145 72
46 154 99 183 118 29 19 55 32 59 29 14 -14 -11 -38 -104 -96 -54 -35 -145
-94 -203 -131 -58 -38 -190 -123 -295 -190 -526 -337 -522 -335 -511 -353 14
-22 -3 -51 -33 -55 -16 -3 -24 3 -28 17 -5 20 -6 20 -41 -4 -33 -23 -52 -25
-52 -6 0 5 20 22 44 37 l45 29 -24 21 c-22 20 -24 20 -46 3 -29 -22 -39 -24
-39 -5 0 7 30 33 68 56 84 55 302 195 557 361 72 47 265 172 430 278 165 106
345 221 399 257 55 35 101 62 103 60 2 -2 0 -11 -3 -20z m-4975 -58 c22 -29
53 -80 69 -113 25 -51 142 -330 142 -340 0 -1 -17 -6 -37 -10 -21 -4 -50 -14
-66 -22 -24 -12 -31 -12 -37 -2 -33 52 -136 539 -115 539 2 0 22 -24 44 -52z
m3279 32 c76 -24 179 -26 248 -5 27 8 53 15 57 15 10 0 -191 -220 -273 -298
l-55 -53 -7 116 c-4 64 -15 143 -23 175 -15 58 -17 70 -12 70 1 0 31 -9 65
-20z m1771 -109 c11 -7 7 -12 -16 -24 -24 -13 -29 -22 -31 -55 -5 -80 66 -215
130 -248 20 -10 56 -16 95 -16 66 0 71 -4 51 -31 -17 -22 -179 -97 -211 -97
-17 0 -45 22 -100 79 -102 107 -127 147 -134 213 -7 65 10 104 62 144 48 37
124 54 154 35z m-2526 -219 c74 -34 167 -93 167 -104 0 -15 -54 -8 -74 10 -21
17 -21 17 -4 -3 17 -20 16 -21 -18 -40 -52 -28 -134 -123 -172 -198 -39 -79
-60 -160 -70 -262 l-7 -76 -106 68 c-79 50 -108 74 -112 93 -8 38 11 114 56
225 46 114 79 173 145 263 46 62 48 63 89 59 23 -2 71 -18 106 -35z m3594 -51
c59 -47 304 -277 355 -332 l37 -40 32 16 c30 16 33 16 58 -3 42 -31 41 -86 -5
-169 -52 -92 -90 -133 -123 -133 -14 0 -31 4 -37 8 -21 14 -35 53 -29 80 5 24
-6 38 -90 122 l-95 95 23 -60 c13 -33 54 -123 90 -201 78 -162 86 -216 42
-259 -30 -31 -57 -31 -142 0 -65 23 -243 57 -243 46 0 -3 32 -36 70 -73 63
-61 73 -67 92 -57 28 15 66 -3 74 -36 15 -59 -21 -139 -99 -223 -68 -72 -163
-7 -116 80 10 18 3 29 -57 90 -38 38 -131 124 -206 190 -110 97 -141 129 -154
164 -21 55 -13 109 20 143 31 30 68 31 132 3 71 -30 384 -87 384 -69 0 3 -23
65 -51 139 -118 308 -122 319 -123 395 -1 63 2 74 23 97 36 39 78 35 138 -13z
m-5407 -11 c78 -40 145 -141 156 -237 3 -26 13 -65 21 -86 20 -46 13 -62 -58
-136 -60 -63 -95 -68 -140 -20 -33 36 -36 65 -13 126 21 55 12 103 -27 148
-34 38 -59 49 -89 40 -26 -8 -25 -23 5 -107 84 -232 35 -416 -129 -489 -39
-17 -59 -20 -99 -15 -143 19 -252 139 -265 292 -7 97 3 130 58 185 56 56 93
64 127 27 33 -37 37 -65 14 -104 -12 -19 -21 -48 -21 -63 0 -41 54 -118 96
-138 35 -17 36 -17 51 2 17 24 13 64 -23 185 -47 161 -42 247 17 315 84 95
218 127 319 75z m4081 -47 c13 -21 47 -66 76 -100 l52 -61 -92 -60 c-105 -68
-254 -145 -311 -161 -55 -15 -111 0 -196 51 -38 23 -70 44 -70 48 0 3 51 32
112 65 159 85 295 168 353 214 28 22 51 40 52 40 1 1 12 -16 24 -36z m-1919
-153 c258 -89 395 -199 458 -368 27 -70 29 -156 4 -183 -9 -10 -20 -19 -23
-19 -4 0 -12 23 -19 52 -15 64 -63 145 -120 204 -62 62 -84 58 -37 -8 60 -83
95 -166 95 -224 0 -42 -6 -61 -32 -100 -28 -42 -38 -49 -69 -52 -37 -3 -37 -3
-44 45 -13 89 -77 186 -151 229 -25 15 -48 24 -51 20 -4 -4 14 -27 39 -52 64
-63 90 -122 96 -215 4 -68 2 -79 -17 -98 -24 -24 -51 -27 -89 -7 -36 19 -61
48 -106 123 -50 84 -83 112 -168 148 -90 37 -108 66 -108 167 0 40 -5 70 -12
74 -15 10 -37 -22 -50 -73 -14 -57 -28 -54 -28 5 0 57 32 177 64 240 33 65 98
136 146 160 l41 20 23 -20 c12 -12 84 -42 158 -68z m3024 -214 c6 -16 4 -17
-17 -11 -19 5 -126 45 -137 51 -1 0 16 41 38 90 l41 88 34 -99 c18 -55 37
-108 41 -119z m-1730 -44 c0 -51 -4 -92 -8 -92 -21 0 -85 33 -110 57 -23 22
-25 28 -15 45 15 25 108 89 122 85 6 -2 10 -43 11 -95z m138 -7 c30 -19 60
-35 66 -35 5 0 10 -3 10 -8 0 -13 -111 -35 -123 -23 -13 13 -27 101 -16 101 5
0 33 -16 63 -35z m-2300 -11 c26 -4 36 -11 36 -24 0 -19 46 -80 60 -80 5 0 40
-24 78 -52 116 -88 174 -113 263 -114 51 -1 84 -7 100 -17 13 -9 44 -23 69
-32 57 -20 74 -36 128 -120 53 -85 95 -130 133 -146 22 -9 29 -18 29 -40 0
-15 10 -54 22 -86 25 -68 122 -176 174 -195 19 -7 34 -14 34 -18 0 -13 -98
-70 -120 -70 -14 0 -48 -6 -76 -14 -50 -13 -50 -13 -111 24 -64 38 -251 95
-355 107 -36 4 -67 16 -98 39 -50 36 -120 62 -189 71 -28 4 -60 17 -81 33 -20
16 -56 38 -81 50 -37 18 -55 37 -97 104 -28 44 -63 113 -78 151 -23 62 -26 80
-21 156 3 64 11 101 30 142 32 70 88 148 104 142 6 -2 28 -7 47 -11z m1970
-29 c9 -37 65 -96 111 -116 50 -23 153 -25 221 -4 95 29 134 10 134 -63 0
-125 -177 -248 -425 -296 -271 -52 -352 -67 -370 -73 -33 -9 55 56 116 88 31
15 99 38 150 49 202 46 226 52 282 82 59 32 97 69 97 95 0 8 -11 25 -25 39
-24 24 -30 25 -85 19 -126 -15 -228 25 -274 108 l-21 38 35 29 c43 36 46 36
54 5z m-2979 -30 c90 -24 153 -63 240 -150 89 -88 139 -170 156 -258 l11 -54
42 1 c51 1 124 -34 177 -84 31 -29 39 -44 39 -72 0 -41 -30 -78 -64 -78 -42 0
-202 -269 -236 -398 -10 -38 -9 -47 6 -63 19 -21 168 -99 189 -99 21 0 100
126 166 264 56 119 59 127 53 179 -6 51 -5 56 19 72 20 13 37 15 67 10 63 -11
159 -63 181 -99 18 -30 21 -31 81 -28 55 3 71 -1 128 -30 53 -27 67 -39 75
-66 8 -27 13 -31 30 -25 61 23 273 -15 376 -67 40 -21 99 -85 99 -109 0 -11 6
-9 23 7 54 51 141 67 289 53 124 -12 177 -31 217 -77 38 -42 47 -92 33 -173
-14 -85 -58 -172 -130 -257 l-58 -69 30 -51 c61 -100 84 -124 121 -124 81 0
121 -95 61 -146 -23 -20 -38 -24 -96 -24 -38 0 -81 5 -95 12 -15 7 -57 53 -95
103 -38 50 -76 97 -84 105 -14 11 -16 8 -16 -25 0 -28 6 -42 25 -57 30 -24 34
-75 7 -108 -15 -18 -35 -24 -103 -33 -77 -9 -89 -9 -125 9 -21 10 -45 31 -52
47 -11 22 -16 25 -32 17 -43 -23 -158 -3 -200 35 -11 10 -43 63 -71 119 -63
122 -69 132 -80 114 -15 -23 -10 -57 11 -78 28 -28 26 -75 -6 -107 -24 -24
-30 -25 -96 -19 -81 7 -151 35 -167 64 -27 51 -3 116 48 127 28 6 29 8 79 213
83 341 80 318 49 350 -15 16 -27 37 -27 49 0 16 -5 19 -24 16 -29 -6 -19 19
-121 -285 -71 -209 -81 -249 -69 -259 21 -17 17 -82 -7 -113 -25 -31 -41 -32
-132 -5 -88 26 -111 41 -132 85 -22 48 -7 89 41 106 18 6 36 19 39 27 4 9 47
125 96 259 l89 243 -21 29 c-18 24 -26 27 -41 19 -10 -6 -27 -7 -38 -4 -16 5
-31 -17 -99 -152 -44 -87 -101 -193 -125 -237 -42 -72 -44 -80 -31 -99 20 -29
19 -70 -3 -98 -24 -28 -91 -29 -153 -2 -49 22 -62 35 -76 77 -8 26 -24 36
-123 78 -68 28 -128 61 -148 80 -42 40 -71 101 -72 149 0 83 62 224 195 440
55 91 72 126 64 135 -8 10 -19 -3 -45 -55 -80 -160 -271 -266 -446 -246 l-58
6 0 -67 c0 -59 3 -70 30 -100 50 -58 52 -119 5 -150 -37 -24 -62 -13 -145 64
l-75 69 0 135 -1 135 -48 54 c-134 149 -159 330 -70 499 66 127 165 215 274
244 72 19 103 19 175 1z m4425 -303 c25 -26 90 -78 145 -116 55 -38 150 -109
212 -157 101 -80 115 -88 138 -79 52 20 106 -36 91 -95 -9 -34 -119 -161 -158
-181 -38 -20 -73 -12 -94 22 -14 21 -15 31 -6 61 12 38 9 53 -11 53 -14 0
-124 -110 -151 -150 -20 -31 -21 -60 -1 -60 29 0 65 -47 65 -83 0 -27 -13 -49
-63 -108 -75 -88 -84 -95 -119 -104 -19 -5 -32 -1 -47 14 -33 33 -37 68 -13
116 21 43 21 43 2 137 -10 51 -48 212 -84 357 -75 298 -81 357 -41 396 40 41
81 34 135 -23z m-3691 -37 c7 -33 21 -80 32 -104 l19 -44 -45 42 c-57 53 -129
98 -177 113 -21 6 -38 15 -38 19 0 4 -2 14 -5 22 -5 12 12 14 98 13 l104 -1
12 -60z m3301 -225 c28 -28 34 -63 16 -99 l-16 -31 113 -222 c163 -319 171
-340 165 -458 -8 -139 -60 -260 -129 -296 -30 -15 -33 -15 -58 4 -38 28 -38
66 0 137 53 100 41 145 -138 520 -95 197 -99 204 -127 203 -31 -1 -66 31 -66
61 0 24 51 100 91 137 75 68 113 80 149 44z m-826 -180 c8 -30 16 -62 20 -70
5 -13 -7 -15 -72 -16 -66 0 -89 -5 -145 -32 -48 -22 -76 -29 -99 -25 -20 3
-57 -3 -93 -15 -33 -11 -112 -30 -176 -41 -64 -12 -140 -28 -170 -37 -30 -8
-58 -15 -64 -15 -12 0 -113 36 -120 43 -6 6 101 94 195 160 124 86 221 117
370 118 36 1 124 13 195 28 l130 27 8 -35 c4 -19 14 -60 21 -90z m558 -192
c22 -10 45 -51 114 -198 48 -102 96 -209 107 -237 l20 -53 -26 -57 c-14 -32
-27 -67 -29 -78 -2 -13 -30 -34 -84 -62 l-82 -43 -20 85 c-27 109 -45 147 -92
189 -64 57 -159 70 -234 31 -16 -9 -32 -13 -35 -10 -3 4 -13 46 -22 94 -16 82
-16 91 0 140 l17 51 119 60 c66 32 138 70 160 83 42 26 44 26 87 5z m-558 -49
c36 -17 52 -69 32 -107 -9 -17 -20 -32 -26 -34 -11 -3 30 -224 81 -449 21 -89
21 -91 48 -84 14 4 46 19 71 34 37 23 46 34 51 66 12 71 79 98 118 49 38 -49
60 -163 39 -204 -8 -14 -34 -36 -60 -50 -25 -14 -70 -40 -99 -57 -30 -18 -92
-47 -139 -64 -75 -27 -89 -29 -122 -19 -44 13 -58 34 -58 87 0 21 -26 167 -57
324 l-57 285 -33 11 c-32 10 -33 9 -33 -21 0 -17 -9 -46 -20 -63 -17 -28 -25
-33 -59 -33 -32 0 -41 4 -46 21 -7 20 -12 21 -79 15 -115 -10 -116 -10 -116
-70 0 -77 8 -96 39 -96 63 0 103 13 113 36 13 27 59 48 86 40 62 -20 80 -225
22 -256 -23 -12 -77 -13 -84 -1 -3 4 -37 -1 -76 -12 -78 -23 -77 -22 -64 -121
8 -55 17 -57 118 -26 56 18 66 24 66 44 0 50 81 84 114 47 23 -25 50 -170 37
-203 -13 -33 -44 -58 -72 -57 -23 1 -184 -34 -299 -66 -77 -21 -133 -20 -155
5 -25 28 -25 93 1 122 21 23 21 25 8 208 -22 313 -32 383 -54 400 -32 25 -43
69 -25 96 26 40 89 63 257 94 90 17 171 34 180 40 41 23 88 5 88 -33 0 -15 7
-11 33 17 36 38 147 96 184 96 12 0 33 -5 47 -11zM2920 7326 c-31 -12 -35 -17 -34 -47 1 -19 9 -61 18 -94 17 -56 19
-58 33 -40 31 42 64 117 66 153 2 33 -1 37 -23 39 -14 1 -41 -4 -60 -11zM2076 6745 c11 -96 14 -100 52 -68 l32 28 -45 50 -46 50 7 -60zM1450 6489 l-40 -41 28 -38 c47 -64 83 -103 88 -97 4 3 8 44 11 90 9
133 -17 158 -87 86zM5487 6883 c-33 -73 -34 -78 -16 -81 48 -8 169 55 169 88 0 12 -88
70 -106 70 -6 0 -27 -35 -47 -77zM2946 6288 c4 -13 20 -42 36 -65 l29 -43 -20 -39 c-30 -58 -43 -154
-30 -231 11 -71 37 -125 60 -125 11 0 14 24 14 135 0 86 4 142 12 155 11 18
14 15 36 -35 37 -84 66 -188 80 -292 14 -100 20 -118 41 -118 28 0 37 29 37
117 -1 176 -79 377 -194 498 -41 43 -70 65 -85 65 -20 0 -22 -4 -16 -22zM3720 5774 c-45 -20 -68 -41 -91 -86 -40 -78 -11 -89 82 -32 56 35
62 37 124 31 36 -4 67 -2 70 3 8 14 -21 66 -47 84 -28 20 -92 20 -138 0zM4585 5676 c-36 -16 -80 -62 -90 -94 -10 -34 17 -37 67 -9 63 36 106
41 150 18 19 -11 39 -17 42 -14 31 31 -59 114 -122 113 -9 -1 -30 -7 -47 -14zM1020 6038 c-22 -33 -40 -68 -40 -77 0 -16 88 -111 102 -111 22 0 37
195 18 231 -18 33 -39 21 -80 -43zM1787 4343 c-112 -179 -158 -343 -158 -564 0 -125 10 -202 43 -307
24 -81 78 -186 89 -175 5 5 0 51 -11 103 -25 122 -43 344 -35 440 14 159 62
380 105 478 31 69 6 88 -33 25zM1495 3511 c-4 -8 -10 -44 -13 -81 -5 -75 15 -159 54 -226 35 -60
125 -141 190 -171 90 -41 88 -18 -8 78 -110 109 -151 187 -207 389 -6 18 -10
21 -16 11zM7337 4572 c-38 -42 -4 -111 47 -98 54 14 72 60 36 96 -25 25 -62 26
-83 2zM7095 4485 c-42 -41 -27 -89 30 -101 56 -11 90 62 50 106 -24 27 -51
25 -80 -5zM6840 4370 c-39 -39 -15 -110 37 -110 26 0 73 37 73 58 0 22 -50 72
-72 72 -10 0 -27 -9 -38 -20zM1385 2187 c-89 -43 -152 -142 -140 -220 10 -63 51 -147 92 -189 71
-73 187 -87 290 -35 154 78 170 223 40 364 -88 96 -189 125 -282 80zM3061 1178 c-10 -26 -40 -191 -35 -196 5 -7 70 31 112 65 47 38 75
84 66 107 -3 9 -22 20 -43 25 -92 25 -90 25 -100 -1zM3390 1132 c0 -60 -112 -212 -209 -283 -34 -25 -35 -26 -21 -60 7
-19 26 -62 42 -95 26 -55 35 -64 75 -79 32 -13 49 -26 60 -51 16 -32 17 -32
43 -19 34 18 34 18 60 319 l21 239 -28 23 c-34 28 -43 29 -43 6zM3625 1058 c-3 -18 -5 -69 -3 -113 l3 -80 53 49 c65 61 94 107 90
143 -3 27 -5 28 -70 31 l-67 3 -6 -33zM6044 1782 c4 -18 15 -60 25 -93 l17 -61 33 37 c17 20 30 42 28 48
-2 6 -27 31 -56 56 l-54 46 7 -33z"/></g>
</svg>